%TF.GenerationSoftware,KiCad,Pcbnew,5.1.9*%
%TF.CreationDate,2021-03-01T07:28:27+02:00*%
%TF.ProjectId,beater-c,62656174-6572-42d6-932e-6b696361645f,rev?*%
%TF.SameCoordinates,Original*%
%TF.FileFunction,Soldermask,Top*%
%TF.FilePolarity,Negative*%
%FSLAX46Y46*%
G04 Gerber Fmt 4.6, Leading zero omitted, Abs format (unit mm)*
G04 Created by KiCad (PCBNEW 5.1.9) date 2021-03-01 07:28:27*
%MOMM*%
%LPD*%
G01*
G04 APERTURE LIST*
%ADD10R,5.200000X5.200000*%
%ADD11R,0.400000X1.900000*%
%ADD12R,0.600000X1.150000*%
%ADD13R,0.300000X1.150000*%
%ADD14O,1.000000X2.200000*%
%ADD15O,1.000000X1.800000*%
%ADD16C,1.752600*%
%ADD17R,1.752600X1.752600*%
G04 APERTURE END LIST*
%TO.C,F1*%
G36*
G01*
X225159000Y-103851000D02*
X225159000Y-102601000D01*
G75*
G02*
X225409000Y-102351000I250000J0D01*
G01*
X226159000Y-102351000D01*
G75*
G02*
X226409000Y-102601000I0J-250000D01*
G01*
X226409000Y-103851000D01*
G75*
G02*
X226159000Y-104101000I-250000J0D01*
G01*
X225409000Y-104101000D01*
G75*
G02*
X225159000Y-103851000I0J250000D01*
G01*
G37*
G36*
G01*
X222359000Y-103851000D02*
X222359000Y-102601000D01*
G75*
G02*
X222609000Y-102351000I250000J0D01*
G01*
X223359000Y-102351000D01*
G75*
G02*
X223609000Y-102601000I0J-250000D01*
G01*
X223609000Y-103851000D01*
G75*
G02*
X223359000Y-104101000I-250000J0D01*
G01*
X222609000Y-104101000D01*
G75*
G02*
X222359000Y-103851000I0J250000D01*
G01*
G37*
%TD*%
D10*
%TO.C,U2*%
X224536000Y-112014000D03*
G36*
G01*
X227398500Y-109389000D02*
X228348500Y-109389000D01*
G75*
G02*
X228411000Y-109451500I0J-62500D01*
G01*
X228411000Y-109576500D01*
G75*
G02*
X228348500Y-109639000I-62500J0D01*
G01*
X227398500Y-109639000D01*
G75*
G02*
X227336000Y-109576500I0J62500D01*
G01*
X227336000Y-109451500D01*
G75*
G02*
X227398500Y-109389000I62500J0D01*
G01*
G37*
G36*
G01*
X227398500Y-109889000D02*
X228348500Y-109889000D01*
G75*
G02*
X228411000Y-109951500I0J-62500D01*
G01*
X228411000Y-110076500D01*
G75*
G02*
X228348500Y-110139000I-62500J0D01*
G01*
X227398500Y-110139000D01*
G75*
G02*
X227336000Y-110076500I0J62500D01*
G01*
X227336000Y-109951500D01*
G75*
G02*
X227398500Y-109889000I62500J0D01*
G01*
G37*
G36*
G01*
X227398500Y-110389000D02*
X228348500Y-110389000D01*
G75*
G02*
X228411000Y-110451500I0J-62500D01*
G01*
X228411000Y-110576500D01*
G75*
G02*
X228348500Y-110639000I-62500J0D01*
G01*
X227398500Y-110639000D01*
G75*
G02*
X227336000Y-110576500I0J62500D01*
G01*
X227336000Y-110451500D01*
G75*
G02*
X227398500Y-110389000I62500J0D01*
G01*
G37*
G36*
G01*
X227398500Y-110889000D02*
X228348500Y-110889000D01*
G75*
G02*
X228411000Y-110951500I0J-62500D01*
G01*
X228411000Y-111076500D01*
G75*
G02*
X228348500Y-111139000I-62500J0D01*
G01*
X227398500Y-111139000D01*
G75*
G02*
X227336000Y-111076500I0J62500D01*
G01*
X227336000Y-110951500D01*
G75*
G02*
X227398500Y-110889000I62500J0D01*
G01*
G37*
G36*
G01*
X227398500Y-111389000D02*
X228348500Y-111389000D01*
G75*
G02*
X228411000Y-111451500I0J-62500D01*
G01*
X228411000Y-111576500D01*
G75*
G02*
X228348500Y-111639000I-62500J0D01*
G01*
X227398500Y-111639000D01*
G75*
G02*
X227336000Y-111576500I0J62500D01*
G01*
X227336000Y-111451500D01*
G75*
G02*
X227398500Y-111389000I62500J0D01*
G01*
G37*
G36*
G01*
X227398500Y-111889000D02*
X228348500Y-111889000D01*
G75*
G02*
X228411000Y-111951500I0J-62500D01*
G01*
X228411000Y-112076500D01*
G75*
G02*
X228348500Y-112139000I-62500J0D01*
G01*
X227398500Y-112139000D01*
G75*
G02*
X227336000Y-112076500I0J62500D01*
G01*
X227336000Y-111951500D01*
G75*
G02*
X227398500Y-111889000I62500J0D01*
G01*
G37*
G36*
G01*
X227398500Y-112389000D02*
X228348500Y-112389000D01*
G75*
G02*
X228411000Y-112451500I0J-62500D01*
G01*
X228411000Y-112576500D01*
G75*
G02*
X228348500Y-112639000I-62500J0D01*
G01*
X227398500Y-112639000D01*
G75*
G02*
X227336000Y-112576500I0J62500D01*
G01*
X227336000Y-112451500D01*
G75*
G02*
X227398500Y-112389000I62500J0D01*
G01*
G37*
G36*
G01*
X227398500Y-112889000D02*
X228348500Y-112889000D01*
G75*
G02*
X228411000Y-112951500I0J-62500D01*
G01*
X228411000Y-113076500D01*
G75*
G02*
X228348500Y-113139000I-62500J0D01*
G01*
X227398500Y-113139000D01*
G75*
G02*
X227336000Y-113076500I0J62500D01*
G01*
X227336000Y-112951500D01*
G75*
G02*
X227398500Y-112889000I62500J0D01*
G01*
G37*
G36*
G01*
X227398500Y-113389000D02*
X228348500Y-113389000D01*
G75*
G02*
X228411000Y-113451500I0J-62500D01*
G01*
X228411000Y-113576500D01*
G75*
G02*
X228348500Y-113639000I-62500J0D01*
G01*
X227398500Y-113639000D01*
G75*
G02*
X227336000Y-113576500I0J62500D01*
G01*
X227336000Y-113451500D01*
G75*
G02*
X227398500Y-113389000I62500J0D01*
G01*
G37*
G36*
G01*
X227398500Y-113889000D02*
X228348500Y-113889000D01*
G75*
G02*
X228411000Y-113951500I0J-62500D01*
G01*
X228411000Y-114076500D01*
G75*
G02*
X228348500Y-114139000I-62500J0D01*
G01*
X227398500Y-114139000D01*
G75*
G02*
X227336000Y-114076500I0J62500D01*
G01*
X227336000Y-113951500D01*
G75*
G02*
X227398500Y-113889000I62500J0D01*
G01*
G37*
G36*
G01*
X227398500Y-114389000D02*
X228348500Y-114389000D01*
G75*
G02*
X228411000Y-114451500I0J-62500D01*
G01*
X228411000Y-114576500D01*
G75*
G02*
X228348500Y-114639000I-62500J0D01*
G01*
X227398500Y-114639000D01*
G75*
G02*
X227336000Y-114576500I0J62500D01*
G01*
X227336000Y-114451500D01*
G75*
G02*
X227398500Y-114389000I62500J0D01*
G01*
G37*
G36*
G01*
X226973500Y-114814000D02*
X227098500Y-114814000D01*
G75*
G02*
X227161000Y-114876500I0J-62500D01*
G01*
X227161000Y-115826500D01*
G75*
G02*
X227098500Y-115889000I-62500J0D01*
G01*
X226973500Y-115889000D01*
G75*
G02*
X226911000Y-115826500I0J62500D01*
G01*
X226911000Y-114876500D01*
G75*
G02*
X226973500Y-114814000I62500J0D01*
G01*
G37*
G36*
G01*
X226473500Y-114814000D02*
X226598500Y-114814000D01*
G75*
G02*
X226661000Y-114876500I0J-62500D01*
G01*
X226661000Y-115826500D01*
G75*
G02*
X226598500Y-115889000I-62500J0D01*
G01*
X226473500Y-115889000D01*
G75*
G02*
X226411000Y-115826500I0J62500D01*
G01*
X226411000Y-114876500D01*
G75*
G02*
X226473500Y-114814000I62500J0D01*
G01*
G37*
G36*
G01*
X225973500Y-114814000D02*
X226098500Y-114814000D01*
G75*
G02*
X226161000Y-114876500I0J-62500D01*
G01*
X226161000Y-115826500D01*
G75*
G02*
X226098500Y-115889000I-62500J0D01*
G01*
X225973500Y-115889000D01*
G75*
G02*
X225911000Y-115826500I0J62500D01*
G01*
X225911000Y-114876500D01*
G75*
G02*
X225973500Y-114814000I62500J0D01*
G01*
G37*
G36*
G01*
X225473500Y-114814000D02*
X225598500Y-114814000D01*
G75*
G02*
X225661000Y-114876500I0J-62500D01*
G01*
X225661000Y-115826500D01*
G75*
G02*
X225598500Y-115889000I-62500J0D01*
G01*
X225473500Y-115889000D01*
G75*
G02*
X225411000Y-115826500I0J62500D01*
G01*
X225411000Y-114876500D01*
G75*
G02*
X225473500Y-114814000I62500J0D01*
G01*
G37*
G36*
G01*
X224973500Y-114814000D02*
X225098500Y-114814000D01*
G75*
G02*
X225161000Y-114876500I0J-62500D01*
G01*
X225161000Y-115826500D01*
G75*
G02*
X225098500Y-115889000I-62500J0D01*
G01*
X224973500Y-115889000D01*
G75*
G02*
X224911000Y-115826500I0J62500D01*
G01*
X224911000Y-114876500D01*
G75*
G02*
X224973500Y-114814000I62500J0D01*
G01*
G37*
G36*
G01*
X224473500Y-114814000D02*
X224598500Y-114814000D01*
G75*
G02*
X224661000Y-114876500I0J-62500D01*
G01*
X224661000Y-115826500D01*
G75*
G02*
X224598500Y-115889000I-62500J0D01*
G01*
X224473500Y-115889000D01*
G75*
G02*
X224411000Y-115826500I0J62500D01*
G01*
X224411000Y-114876500D01*
G75*
G02*
X224473500Y-114814000I62500J0D01*
G01*
G37*
G36*
G01*
X223973500Y-114814000D02*
X224098500Y-114814000D01*
G75*
G02*
X224161000Y-114876500I0J-62500D01*
G01*
X224161000Y-115826500D01*
G75*
G02*
X224098500Y-115889000I-62500J0D01*
G01*
X223973500Y-115889000D01*
G75*
G02*
X223911000Y-115826500I0J62500D01*
G01*
X223911000Y-114876500D01*
G75*
G02*
X223973500Y-114814000I62500J0D01*
G01*
G37*
G36*
G01*
X223473500Y-114814000D02*
X223598500Y-114814000D01*
G75*
G02*
X223661000Y-114876500I0J-62500D01*
G01*
X223661000Y-115826500D01*
G75*
G02*
X223598500Y-115889000I-62500J0D01*
G01*
X223473500Y-115889000D01*
G75*
G02*
X223411000Y-115826500I0J62500D01*
G01*
X223411000Y-114876500D01*
G75*
G02*
X223473500Y-114814000I62500J0D01*
G01*
G37*
G36*
G01*
X222973500Y-114814000D02*
X223098500Y-114814000D01*
G75*
G02*
X223161000Y-114876500I0J-62500D01*
G01*
X223161000Y-115826500D01*
G75*
G02*
X223098500Y-115889000I-62500J0D01*
G01*
X222973500Y-115889000D01*
G75*
G02*
X222911000Y-115826500I0J62500D01*
G01*
X222911000Y-114876500D01*
G75*
G02*
X222973500Y-114814000I62500J0D01*
G01*
G37*
G36*
G01*
X222473500Y-114814000D02*
X222598500Y-114814000D01*
G75*
G02*
X222661000Y-114876500I0J-62500D01*
G01*
X222661000Y-115826500D01*
G75*
G02*
X222598500Y-115889000I-62500J0D01*
G01*
X222473500Y-115889000D01*
G75*
G02*
X222411000Y-115826500I0J62500D01*
G01*
X222411000Y-114876500D01*
G75*
G02*
X222473500Y-114814000I62500J0D01*
G01*
G37*
G36*
G01*
X221973500Y-114814000D02*
X222098500Y-114814000D01*
G75*
G02*
X222161000Y-114876500I0J-62500D01*
G01*
X222161000Y-115826500D01*
G75*
G02*
X222098500Y-115889000I-62500J0D01*
G01*
X221973500Y-115889000D01*
G75*
G02*
X221911000Y-115826500I0J62500D01*
G01*
X221911000Y-114876500D01*
G75*
G02*
X221973500Y-114814000I62500J0D01*
G01*
G37*
G36*
G01*
X220723500Y-114389000D02*
X221673500Y-114389000D01*
G75*
G02*
X221736000Y-114451500I0J-62500D01*
G01*
X221736000Y-114576500D01*
G75*
G02*
X221673500Y-114639000I-62500J0D01*
G01*
X220723500Y-114639000D01*
G75*
G02*
X220661000Y-114576500I0J62500D01*
G01*
X220661000Y-114451500D01*
G75*
G02*
X220723500Y-114389000I62500J0D01*
G01*
G37*
G36*
G01*
X220723500Y-113889000D02*
X221673500Y-113889000D01*
G75*
G02*
X221736000Y-113951500I0J-62500D01*
G01*
X221736000Y-114076500D01*
G75*
G02*
X221673500Y-114139000I-62500J0D01*
G01*
X220723500Y-114139000D01*
G75*
G02*
X220661000Y-114076500I0J62500D01*
G01*
X220661000Y-113951500D01*
G75*
G02*
X220723500Y-113889000I62500J0D01*
G01*
G37*
G36*
G01*
X220723500Y-113389000D02*
X221673500Y-113389000D01*
G75*
G02*
X221736000Y-113451500I0J-62500D01*
G01*
X221736000Y-113576500D01*
G75*
G02*
X221673500Y-113639000I-62500J0D01*
G01*
X220723500Y-113639000D01*
G75*
G02*
X220661000Y-113576500I0J62500D01*
G01*
X220661000Y-113451500D01*
G75*
G02*
X220723500Y-113389000I62500J0D01*
G01*
G37*
G36*
G01*
X220723500Y-112889000D02*
X221673500Y-112889000D01*
G75*
G02*
X221736000Y-112951500I0J-62500D01*
G01*
X221736000Y-113076500D01*
G75*
G02*
X221673500Y-113139000I-62500J0D01*
G01*
X220723500Y-113139000D01*
G75*
G02*
X220661000Y-113076500I0J62500D01*
G01*
X220661000Y-112951500D01*
G75*
G02*
X220723500Y-112889000I62500J0D01*
G01*
G37*
G36*
G01*
X220723500Y-112389000D02*
X221673500Y-112389000D01*
G75*
G02*
X221736000Y-112451500I0J-62500D01*
G01*
X221736000Y-112576500D01*
G75*
G02*
X221673500Y-112639000I-62500J0D01*
G01*
X220723500Y-112639000D01*
G75*
G02*
X220661000Y-112576500I0J62500D01*
G01*
X220661000Y-112451500D01*
G75*
G02*
X220723500Y-112389000I62500J0D01*
G01*
G37*
G36*
G01*
X220723500Y-111889000D02*
X221673500Y-111889000D01*
G75*
G02*
X221736000Y-111951500I0J-62500D01*
G01*
X221736000Y-112076500D01*
G75*
G02*
X221673500Y-112139000I-62500J0D01*
G01*
X220723500Y-112139000D01*
G75*
G02*
X220661000Y-112076500I0J62500D01*
G01*
X220661000Y-111951500D01*
G75*
G02*
X220723500Y-111889000I62500J0D01*
G01*
G37*
G36*
G01*
X220723500Y-111389000D02*
X221673500Y-111389000D01*
G75*
G02*
X221736000Y-111451500I0J-62500D01*
G01*
X221736000Y-111576500D01*
G75*
G02*
X221673500Y-111639000I-62500J0D01*
G01*
X220723500Y-111639000D01*
G75*
G02*
X220661000Y-111576500I0J62500D01*
G01*
X220661000Y-111451500D01*
G75*
G02*
X220723500Y-111389000I62500J0D01*
G01*
G37*
G36*
G01*
X220723500Y-110889000D02*
X221673500Y-110889000D01*
G75*
G02*
X221736000Y-110951500I0J-62500D01*
G01*
X221736000Y-111076500D01*
G75*
G02*
X221673500Y-111139000I-62500J0D01*
G01*
X220723500Y-111139000D01*
G75*
G02*
X220661000Y-111076500I0J62500D01*
G01*
X220661000Y-110951500D01*
G75*
G02*
X220723500Y-110889000I62500J0D01*
G01*
G37*
G36*
G01*
X220723500Y-110389000D02*
X221673500Y-110389000D01*
G75*
G02*
X221736000Y-110451500I0J-62500D01*
G01*
X221736000Y-110576500D01*
G75*
G02*
X221673500Y-110639000I-62500J0D01*
G01*
X220723500Y-110639000D01*
G75*
G02*
X220661000Y-110576500I0J62500D01*
G01*
X220661000Y-110451500D01*
G75*
G02*
X220723500Y-110389000I62500J0D01*
G01*
G37*
G36*
G01*
X220723500Y-109889000D02*
X221673500Y-109889000D01*
G75*
G02*
X221736000Y-109951500I0J-62500D01*
G01*
X221736000Y-110076500D01*
G75*
G02*
X221673500Y-110139000I-62500J0D01*
G01*
X220723500Y-110139000D01*
G75*
G02*
X220661000Y-110076500I0J62500D01*
G01*
X220661000Y-109951500D01*
G75*
G02*
X220723500Y-109889000I62500J0D01*
G01*
G37*
G36*
G01*
X220723500Y-109389000D02*
X221673500Y-109389000D01*
G75*
G02*
X221736000Y-109451500I0J-62500D01*
G01*
X221736000Y-109576500D01*
G75*
G02*
X221673500Y-109639000I-62500J0D01*
G01*
X220723500Y-109639000D01*
G75*
G02*
X220661000Y-109576500I0J62500D01*
G01*
X220661000Y-109451500D01*
G75*
G02*
X220723500Y-109389000I62500J0D01*
G01*
G37*
G36*
G01*
X221973500Y-108139000D02*
X222098500Y-108139000D01*
G75*
G02*
X222161000Y-108201500I0J-62500D01*
G01*
X222161000Y-109151500D01*
G75*
G02*
X222098500Y-109214000I-62500J0D01*
G01*
X221973500Y-109214000D01*
G75*
G02*
X221911000Y-109151500I0J62500D01*
G01*
X221911000Y-108201500D01*
G75*
G02*
X221973500Y-108139000I62500J0D01*
G01*
G37*
G36*
G01*
X222473500Y-108139000D02*
X222598500Y-108139000D01*
G75*
G02*
X222661000Y-108201500I0J-62500D01*
G01*
X222661000Y-109151500D01*
G75*
G02*
X222598500Y-109214000I-62500J0D01*
G01*
X222473500Y-109214000D01*
G75*
G02*
X222411000Y-109151500I0J62500D01*
G01*
X222411000Y-108201500D01*
G75*
G02*
X222473500Y-108139000I62500J0D01*
G01*
G37*
G36*
G01*
X222973500Y-108139000D02*
X223098500Y-108139000D01*
G75*
G02*
X223161000Y-108201500I0J-62500D01*
G01*
X223161000Y-109151500D01*
G75*
G02*
X223098500Y-109214000I-62500J0D01*
G01*
X222973500Y-109214000D01*
G75*
G02*
X222911000Y-109151500I0J62500D01*
G01*
X222911000Y-108201500D01*
G75*
G02*
X222973500Y-108139000I62500J0D01*
G01*
G37*
G36*
G01*
X223473500Y-108139000D02*
X223598500Y-108139000D01*
G75*
G02*
X223661000Y-108201500I0J-62500D01*
G01*
X223661000Y-109151500D01*
G75*
G02*
X223598500Y-109214000I-62500J0D01*
G01*
X223473500Y-109214000D01*
G75*
G02*
X223411000Y-109151500I0J62500D01*
G01*
X223411000Y-108201500D01*
G75*
G02*
X223473500Y-108139000I62500J0D01*
G01*
G37*
G36*
G01*
X223973500Y-108139000D02*
X224098500Y-108139000D01*
G75*
G02*
X224161000Y-108201500I0J-62500D01*
G01*
X224161000Y-109151500D01*
G75*
G02*
X224098500Y-109214000I-62500J0D01*
G01*
X223973500Y-109214000D01*
G75*
G02*
X223911000Y-109151500I0J62500D01*
G01*
X223911000Y-108201500D01*
G75*
G02*
X223973500Y-108139000I62500J0D01*
G01*
G37*
G36*
G01*
X224473500Y-108139000D02*
X224598500Y-108139000D01*
G75*
G02*
X224661000Y-108201500I0J-62500D01*
G01*
X224661000Y-109151500D01*
G75*
G02*
X224598500Y-109214000I-62500J0D01*
G01*
X224473500Y-109214000D01*
G75*
G02*
X224411000Y-109151500I0J62500D01*
G01*
X224411000Y-108201500D01*
G75*
G02*
X224473500Y-108139000I62500J0D01*
G01*
G37*
G36*
G01*
X224973500Y-108139000D02*
X225098500Y-108139000D01*
G75*
G02*
X225161000Y-108201500I0J-62500D01*
G01*
X225161000Y-109151500D01*
G75*
G02*
X225098500Y-109214000I-62500J0D01*
G01*
X224973500Y-109214000D01*
G75*
G02*
X224911000Y-109151500I0J62500D01*
G01*
X224911000Y-108201500D01*
G75*
G02*
X224973500Y-108139000I62500J0D01*
G01*
G37*
G36*
G01*
X225473500Y-108139000D02*
X225598500Y-108139000D01*
G75*
G02*
X225661000Y-108201500I0J-62500D01*
G01*
X225661000Y-109151500D01*
G75*
G02*
X225598500Y-109214000I-62500J0D01*
G01*
X225473500Y-109214000D01*
G75*
G02*
X225411000Y-109151500I0J62500D01*
G01*
X225411000Y-108201500D01*
G75*
G02*
X225473500Y-108139000I62500J0D01*
G01*
G37*
G36*
G01*
X225973500Y-108139000D02*
X226098500Y-108139000D01*
G75*
G02*
X226161000Y-108201500I0J-62500D01*
G01*
X226161000Y-109151500D01*
G75*
G02*
X226098500Y-109214000I-62500J0D01*
G01*
X225973500Y-109214000D01*
G75*
G02*
X225911000Y-109151500I0J62500D01*
G01*
X225911000Y-108201500D01*
G75*
G02*
X225973500Y-108139000I62500J0D01*
G01*
G37*
G36*
G01*
X226473500Y-108139000D02*
X226598500Y-108139000D01*
G75*
G02*
X226661000Y-108201500I0J-62500D01*
G01*
X226661000Y-109151500D01*
G75*
G02*
X226598500Y-109214000I-62500J0D01*
G01*
X226473500Y-109214000D01*
G75*
G02*
X226411000Y-109151500I0J62500D01*
G01*
X226411000Y-108201500D01*
G75*
G02*
X226473500Y-108139000I62500J0D01*
G01*
G37*
G36*
G01*
X226973500Y-108139000D02*
X227098500Y-108139000D01*
G75*
G02*
X227161000Y-108201500I0J-62500D01*
G01*
X227161000Y-109151500D01*
G75*
G02*
X227098500Y-109214000I-62500J0D01*
G01*
X226973500Y-109214000D01*
G75*
G02*
X226911000Y-109151500I0J62500D01*
G01*
X226911000Y-108201500D01*
G75*
G02*
X226973500Y-108139000I62500J0D01*
G01*
G37*
%TD*%
%TO.C,C2*%
G36*
G01*
X229126000Y-109257000D02*
X229496000Y-109257000D01*
G75*
G02*
X229631000Y-109392000I0J-135000D01*
G01*
X229631000Y-109662000D01*
G75*
G02*
X229496000Y-109797000I-135000J0D01*
G01*
X229126000Y-109797000D01*
G75*
G02*
X228991000Y-109662000I0J135000D01*
G01*
X228991000Y-109392000D01*
G75*
G02*
X229126000Y-109257000I135000J0D01*
G01*
G37*
G36*
G01*
X229126000Y-108237000D02*
X229496000Y-108237000D01*
G75*
G02*
X229631000Y-108372000I0J-135000D01*
G01*
X229631000Y-108642000D01*
G75*
G02*
X229496000Y-108777000I-135000J0D01*
G01*
X229126000Y-108777000D01*
G75*
G02*
X228991000Y-108642000I0J135000D01*
G01*
X228991000Y-108372000D01*
G75*
G02*
X229126000Y-108237000I135000J0D01*
G01*
G37*
%TD*%
%TO.C,C3*%
G36*
G01*
X229649000Y-114568000D02*
X229279000Y-114568000D01*
G75*
G02*
X229144000Y-114433000I0J135000D01*
G01*
X229144000Y-114163000D01*
G75*
G02*
X229279000Y-114028000I135000J0D01*
G01*
X229649000Y-114028000D01*
G75*
G02*
X229784000Y-114163000I0J-135000D01*
G01*
X229784000Y-114433000D01*
G75*
G02*
X229649000Y-114568000I-135000J0D01*
G01*
G37*
G36*
G01*
X229649000Y-115588000D02*
X229279000Y-115588000D01*
G75*
G02*
X229144000Y-115453000I0J135000D01*
G01*
X229144000Y-115183000D01*
G75*
G02*
X229279000Y-115048000I135000J0D01*
G01*
X229649000Y-115048000D01*
G75*
G02*
X229784000Y-115183000I0J-135000D01*
G01*
X229784000Y-115453000D01*
G75*
G02*
X229649000Y-115588000I-135000J0D01*
G01*
G37*
%TD*%
%TO.C,R5*%
G36*
G01*
X227496000Y-116553000D02*
X227496000Y-116923000D01*
G75*
G02*
X227361000Y-117058000I-135000J0D01*
G01*
X227091000Y-117058000D01*
G75*
G02*
X226956000Y-116923000I0J135000D01*
G01*
X226956000Y-116553000D01*
G75*
G02*
X227091000Y-116418000I135000J0D01*
G01*
X227361000Y-116418000D01*
G75*
G02*
X227496000Y-116553000I0J-135000D01*
G01*
G37*
G36*
G01*
X228516000Y-116553000D02*
X228516000Y-116923000D01*
G75*
G02*
X228381000Y-117058000I-135000J0D01*
G01*
X228111000Y-117058000D01*
G75*
G02*
X227976000Y-116923000I0J135000D01*
G01*
X227976000Y-116553000D01*
G75*
G02*
X228111000Y-116418000I135000J0D01*
G01*
X228381000Y-116418000D01*
G75*
G02*
X228516000Y-116553000I0J-135000D01*
G01*
G37*
%TD*%
D11*
%TO.C,Y1*%
X223336000Y-121310000D03*
X224536000Y-121310000D03*
X225736000Y-121310000D03*
%TD*%
%TO.C,C4*%
G36*
G01*
X221654400Y-116604000D02*
X221654400Y-116974000D01*
G75*
G02*
X221519400Y-117109000I-135000J0D01*
G01*
X221249400Y-117109000D01*
G75*
G02*
X221114400Y-116974000I0J135000D01*
G01*
X221114400Y-116604000D01*
G75*
G02*
X221249400Y-116469000I135000J0D01*
G01*
X221519400Y-116469000D01*
G75*
G02*
X221654400Y-116604000I0J-135000D01*
G01*
G37*
G36*
G01*
X222674400Y-116604000D02*
X222674400Y-116974000D01*
G75*
G02*
X222539400Y-117109000I-135000J0D01*
G01*
X222269400Y-117109000D01*
G75*
G02*
X222134400Y-116974000I0J135000D01*
G01*
X222134400Y-116604000D01*
G75*
G02*
X222269400Y-116469000I135000J0D01*
G01*
X222539400Y-116469000D01*
G75*
G02*
X222674400Y-116604000I0J-135000D01*
G01*
G37*
%TD*%
%TO.C,C1*%
G36*
G01*
X219144000Y-108317000D02*
X219514000Y-108317000D01*
G75*
G02*
X219649000Y-108452000I0J-135000D01*
G01*
X219649000Y-108722000D01*
G75*
G02*
X219514000Y-108857000I-135000J0D01*
G01*
X219144000Y-108857000D01*
G75*
G02*
X219009000Y-108722000I0J135000D01*
G01*
X219009000Y-108452000D01*
G75*
G02*
X219144000Y-108317000I135000J0D01*
G01*
G37*
G36*
G01*
X219144000Y-107297000D02*
X219514000Y-107297000D01*
G75*
G02*
X219649000Y-107432000I0J-135000D01*
G01*
X219649000Y-107702000D01*
G75*
G02*
X219514000Y-107837000I-135000J0D01*
G01*
X219144000Y-107837000D01*
G75*
G02*
X219009000Y-107702000I0J135000D01*
G01*
X219009000Y-107432000D01*
G75*
G02*
X219144000Y-107297000I135000J0D01*
G01*
G37*
%TD*%
%TO.C,C5*%
G36*
G01*
X223354000Y-106306000D02*
X223354000Y-105936000D01*
G75*
G02*
X223489000Y-105801000I135000J0D01*
G01*
X223759000Y-105801000D01*
G75*
G02*
X223894000Y-105936000I0J-135000D01*
G01*
X223894000Y-106306000D01*
G75*
G02*
X223759000Y-106441000I-135000J0D01*
G01*
X223489000Y-106441000D01*
G75*
G02*
X223354000Y-106306000I0J135000D01*
G01*
G37*
G36*
G01*
X222334000Y-106306000D02*
X222334000Y-105936000D01*
G75*
G02*
X222469000Y-105801000I135000J0D01*
G01*
X222739000Y-105801000D01*
G75*
G02*
X222874000Y-105936000I0J-135000D01*
G01*
X222874000Y-106306000D01*
G75*
G02*
X222739000Y-106441000I-135000J0D01*
G01*
X222469000Y-106441000D01*
G75*
G02*
X222334000Y-106306000I0J135000D01*
G01*
G37*
%TD*%
%TO.C,R1*%
G36*
G01*
X227850000Y-100297000D02*
X227850000Y-100667000D01*
G75*
G02*
X227715000Y-100802000I-135000J0D01*
G01*
X227445000Y-100802000D01*
G75*
G02*
X227310000Y-100667000I0J135000D01*
G01*
X227310000Y-100297000D01*
G75*
G02*
X227445000Y-100162000I135000J0D01*
G01*
X227715000Y-100162000D01*
G75*
G02*
X227850000Y-100297000I0J-135000D01*
G01*
G37*
G36*
G01*
X228870000Y-100297000D02*
X228870000Y-100667000D01*
G75*
G02*
X228735000Y-100802000I-135000J0D01*
G01*
X228465000Y-100802000D01*
G75*
G02*
X228330000Y-100667000I0J135000D01*
G01*
X228330000Y-100297000D01*
G75*
G02*
X228465000Y-100162000I135000J0D01*
G01*
X228735000Y-100162000D01*
G75*
G02*
X228870000Y-100297000I0J-135000D01*
G01*
G37*
%TD*%
D12*
%TO.C,USB1*%
X221413000Y-98725800D03*
X222188000Y-98725800D03*
X227863000Y-98725800D03*
X227088000Y-98725800D03*
D13*
X223388000Y-98725800D03*
X222888000Y-98725800D03*
X226388000Y-98725800D03*
X225888000Y-98725800D03*
X223888000Y-98725800D03*
X225388000Y-98725800D03*
X224388000Y-98725800D03*
X224888000Y-98725800D03*
D14*
X230258000Y-93590800D03*
X219018000Y-93590800D03*
D15*
X219018000Y-97590800D03*
X230258000Y-97590800D03*
%TD*%
%TO.C,R4*%
G36*
G01*
X225280000Y-100903000D02*
X224910000Y-100903000D01*
G75*
G02*
X224775000Y-100768000I0J135000D01*
G01*
X224775000Y-100498000D01*
G75*
G02*
X224910000Y-100363000I135000J0D01*
G01*
X225280000Y-100363000D01*
G75*
G02*
X225415000Y-100498000I0J-135000D01*
G01*
X225415000Y-100768000D01*
G75*
G02*
X225280000Y-100903000I-135000J0D01*
G01*
G37*
G36*
G01*
X225280000Y-101923000D02*
X224910000Y-101923000D01*
G75*
G02*
X224775000Y-101788000I0J135000D01*
G01*
X224775000Y-101518000D01*
G75*
G02*
X224910000Y-101383000I135000J0D01*
G01*
X225280000Y-101383000D01*
G75*
G02*
X225415000Y-101518000I0J-135000D01*
G01*
X225415000Y-101788000D01*
G75*
G02*
X225280000Y-101923000I-135000J0D01*
G01*
G37*
%TD*%
%TO.C,R3*%
G36*
G01*
X224061000Y-100903000D02*
X223691000Y-100903000D01*
G75*
G02*
X223556000Y-100768000I0J135000D01*
G01*
X223556000Y-100498000D01*
G75*
G02*
X223691000Y-100363000I135000J0D01*
G01*
X224061000Y-100363000D01*
G75*
G02*
X224196000Y-100498000I0J-135000D01*
G01*
X224196000Y-100768000D01*
G75*
G02*
X224061000Y-100903000I-135000J0D01*
G01*
G37*
G36*
G01*
X224061000Y-101923000D02*
X223691000Y-101923000D01*
G75*
G02*
X223556000Y-101788000I0J135000D01*
G01*
X223556000Y-101518000D01*
G75*
G02*
X223691000Y-101383000I135000J0D01*
G01*
X224061000Y-101383000D01*
G75*
G02*
X224196000Y-101518000I0J-135000D01*
G01*
X224196000Y-101788000D01*
G75*
G02*
X224061000Y-101923000I-135000J0D01*
G01*
G37*
%TD*%
%TO.C,R2*%
G36*
G01*
X221066000Y-100667000D02*
X221066000Y-100297000D01*
G75*
G02*
X221201000Y-100162000I135000J0D01*
G01*
X221471000Y-100162000D01*
G75*
G02*
X221606000Y-100297000I0J-135000D01*
G01*
X221606000Y-100667000D01*
G75*
G02*
X221471000Y-100802000I-135000J0D01*
G01*
X221201000Y-100802000D01*
G75*
G02*
X221066000Y-100667000I0J135000D01*
G01*
G37*
G36*
G01*
X220046000Y-100667000D02*
X220046000Y-100297000D01*
G75*
G02*
X220181000Y-100162000I135000J0D01*
G01*
X220451000Y-100162000D01*
G75*
G02*
X220586000Y-100297000I0J-135000D01*
G01*
X220586000Y-100667000D01*
G75*
G02*
X220451000Y-100802000I-135000J0D01*
G01*
X220181000Y-100802000D01*
G75*
G02*
X220046000Y-100667000I0J135000D01*
G01*
G37*
%TD*%
D16*
%TO.C,U1*%
X232207000Y-95402000D03*
X216967000Y-123342000D03*
X232207000Y-97942000D03*
X232207000Y-100482000D03*
X232207000Y-103022000D03*
X232207000Y-105562000D03*
X232207000Y-108102000D03*
X232207000Y-110642000D03*
X232207000Y-113182000D03*
X232207000Y-115722000D03*
X232207000Y-118262000D03*
X232207000Y-120802000D03*
X232207000Y-123342000D03*
X216967000Y-120802000D03*
X216967000Y-118262000D03*
X216967000Y-115722000D03*
X216967000Y-113182000D03*
X216967000Y-110642000D03*
X216967000Y-108102000D03*
X216967000Y-105562000D03*
X216967000Y-103022000D03*
X216967000Y-100482000D03*
X216967000Y-97942000D03*
D17*
X216967000Y-95402000D03*
%TD*%
M02*
