%TF.GenerationSoftware,KiCad,Pcbnew,5.1.9*%
%TF.CreationDate,2021-03-01T07:28:27+02:00*%
%TF.ProjectId,beater-c,62656174-6572-42d6-932e-6b696361645f,rev?*%
%TF.SameCoordinates,Original*%
%TF.FileFunction,Legend,Bot*%
%TF.FilePolarity,Positive*%
%FSLAX46Y46*%
G04 Gerber Fmt 4.6, Leading zero omitted, Abs format (unit mm)*
G04 Created by KiCad (PCBNEW 5.1.9) date 2021-03-01 07:28:27*
%MOMM*%
%LPD*%
G01*
G04 APERTURE LIST*
%ADD10C,0.381000*%
%ADD11C,0.150000*%
%ADD12O,1.000000X2.200000*%
%ADD13O,1.000000X1.800000*%
%ADD14C,1.752600*%
%ADD15R,1.752600X1.752600*%
G04 APERTURE END LIST*
D10*
%TO.C,U1*%
X218237000Y-94132000D02*
X215697000Y-94132000D01*
X233477000Y-91592000D02*
X215697000Y-91592000D01*
X215697000Y-91592000D02*
X215697000Y-124612000D01*
X215697000Y-124612000D02*
X233477000Y-124612000D01*
X233477000Y-124612000D02*
X233477000Y-91592000D01*
D11*
G36*
X230431635Y-100021030D02*
G01*
X230431635Y-100121030D01*
X230931635Y-100121030D01*
X230931635Y-100021030D01*
X230431635Y-100021030D01*
G37*
X230431635Y-100021030D02*
X230431635Y-100121030D01*
X230931635Y-100121030D01*
X230931635Y-100021030D01*
X230431635Y-100021030D01*
G36*
X230431635Y-100021030D02*
G01*
X230431635Y-100321030D01*
X230531635Y-100321030D01*
X230531635Y-100021030D01*
X230431635Y-100021030D01*
G37*
X230431635Y-100021030D02*
X230431635Y-100321030D01*
X230531635Y-100321030D01*
X230531635Y-100021030D01*
X230431635Y-100021030D01*
G36*
X230431635Y-100621030D02*
G01*
X230431635Y-100821030D01*
X230531635Y-100821030D01*
X230531635Y-100621030D01*
X230431635Y-100621030D01*
G37*
X230431635Y-100621030D02*
X230431635Y-100821030D01*
X230531635Y-100821030D01*
X230531635Y-100621030D01*
X230431635Y-100621030D01*
G36*
X230831635Y-100021030D02*
G01*
X230831635Y-100821030D01*
X230931635Y-100821030D01*
X230931635Y-100021030D01*
X230831635Y-100021030D01*
G37*
X230831635Y-100021030D02*
X230831635Y-100821030D01*
X230931635Y-100821030D01*
X230931635Y-100021030D01*
X230831635Y-100021030D01*
G36*
X230631635Y-100421030D02*
G01*
X230631635Y-100521030D01*
X230731635Y-100521030D01*
X230731635Y-100421030D01*
X230631635Y-100421030D01*
G37*
X230631635Y-100421030D02*
X230631635Y-100521030D01*
X230731635Y-100521030D01*
X230731635Y-100421030D01*
X230631635Y-100421030D01*
D10*
X218237000Y-94132000D02*
X218237000Y-96672000D01*
X218237000Y-96672000D02*
X215697000Y-96672000D01*
D11*
X230160333Y-100785809D02*
X230046047Y-100823904D01*
X229855571Y-100823904D01*
X229779380Y-100785809D01*
X229741285Y-100747714D01*
X229703190Y-100671523D01*
X229703190Y-100595333D01*
X229741285Y-100519142D01*
X229779380Y-100481047D01*
X229855571Y-100442952D01*
X230007952Y-100404857D01*
X230084142Y-100366761D01*
X230122238Y-100328666D01*
X230160333Y-100252476D01*
X230160333Y-100176285D01*
X230122238Y-100100095D01*
X230084142Y-100062000D01*
X230007952Y-100023904D01*
X229817476Y-100023904D01*
X229703190Y-100062000D01*
X229474619Y-100023904D02*
X229017476Y-100023904D01*
X229246047Y-100823904D02*
X229246047Y-100023904D01*
X223205604Y-94963904D02*
X222748461Y-94963904D01*
X222977032Y-95763904D02*
X222977032Y-94963904D01*
X222557985Y-94963904D02*
X222024651Y-95763904D01*
X222024651Y-94963904D02*
X222557985Y-95763904D01*
X221567508Y-94963904D02*
X221491318Y-94963904D01*
X221415128Y-95002000D01*
X221377032Y-95040095D01*
X221338937Y-95116285D01*
X221300842Y-95268666D01*
X221300842Y-95459142D01*
X221338937Y-95611523D01*
X221377032Y-95687714D01*
X221415128Y-95725809D01*
X221491318Y-95763904D01*
X221567508Y-95763904D01*
X221643699Y-95725809D01*
X221681794Y-95687714D01*
X221719889Y-95611523D01*
X221757985Y-95459142D01*
X221757985Y-95268666D01*
X221719889Y-95116285D01*
X221681794Y-95040095D01*
X221643699Y-95002000D01*
X221567508Y-94963904D01*
X220386556Y-94925809D02*
X221072270Y-95954380D01*
X220119889Y-95763904D02*
X220119889Y-94963904D01*
X219929413Y-94963904D01*
X219815128Y-95002000D01*
X219738937Y-95078190D01*
X219700842Y-95154380D01*
X219662747Y-95306761D01*
X219662747Y-95421047D01*
X219700842Y-95573428D01*
X219738937Y-95649619D01*
X219815128Y-95725809D01*
X219929413Y-95763904D01*
X220119889Y-95763904D01*
X219396080Y-94963904D02*
X218900842Y-94963904D01*
X219167508Y-95268666D01*
X219053223Y-95268666D01*
X218977032Y-95306761D01*
X218938937Y-95344857D01*
X218900842Y-95421047D01*
X218900842Y-95611523D01*
X218938937Y-95687714D01*
X218977032Y-95725809D01*
X219053223Y-95763904D01*
X219281794Y-95763904D01*
X219357985Y-95725809D01*
X219396080Y-95687714D01*
X230371809Y-120744857D02*
X230257523Y-120782952D01*
X230219428Y-120821047D01*
X230181333Y-120897238D01*
X230181333Y-121011523D01*
X230219428Y-121087714D01*
X230257523Y-121125809D01*
X230333714Y-121163904D01*
X230638476Y-121163904D01*
X230638476Y-120363904D01*
X230371809Y-120363904D01*
X230295619Y-120402000D01*
X230257523Y-120440095D01*
X230219428Y-120516285D01*
X230219428Y-120592476D01*
X230257523Y-120668666D01*
X230295619Y-120706761D01*
X230371809Y-120744857D01*
X230638476Y-120744857D01*
X229876571Y-120440095D02*
X229838476Y-120402000D01*
X229762285Y-120363904D01*
X229571809Y-120363904D01*
X229495619Y-120402000D01*
X229457523Y-120440095D01*
X229419428Y-120516285D01*
X229419428Y-120592476D01*
X229457523Y-120706761D01*
X229914666Y-121163904D01*
X229419428Y-121163904D01*
X230314666Y-113124857D02*
X230581333Y-113124857D01*
X230581333Y-113543904D02*
X230581333Y-112743904D01*
X230200380Y-112743904D01*
X229971809Y-112743904D02*
X229438476Y-112743904D01*
X229781333Y-113543904D01*
X230314666Y-110584857D02*
X230581333Y-110584857D01*
X230581333Y-111003904D02*
X230581333Y-110203904D01*
X230200380Y-110203904D01*
X229552761Y-110203904D02*
X229705142Y-110203904D01*
X229781333Y-110242000D01*
X229819428Y-110280095D01*
X229895619Y-110394380D01*
X229933714Y-110546761D01*
X229933714Y-110851523D01*
X229895619Y-110927714D01*
X229857523Y-110965809D01*
X229781333Y-111003904D01*
X229628952Y-111003904D01*
X229552761Y-110965809D01*
X229514666Y-110927714D01*
X229476571Y-110851523D01*
X229476571Y-110661047D01*
X229514666Y-110584857D01*
X229552761Y-110546761D01*
X229628952Y-110508666D01*
X229781333Y-110508666D01*
X229857523Y-110546761D01*
X229895619Y-110584857D01*
X229933714Y-110661047D01*
X230314666Y-108044857D02*
X230581333Y-108044857D01*
X230581333Y-108463904D02*
X230581333Y-107663904D01*
X230200380Y-107663904D01*
X229514666Y-107663904D02*
X229895619Y-107663904D01*
X229933714Y-108044857D01*
X229895619Y-108006761D01*
X229819428Y-107968666D01*
X229628952Y-107968666D01*
X229552761Y-108006761D01*
X229514666Y-108044857D01*
X229476571Y-108121047D01*
X229476571Y-108311523D01*
X229514666Y-108387714D01*
X229552761Y-108425809D01*
X229628952Y-108463904D01*
X229819428Y-108463904D01*
X229895619Y-108425809D01*
X229933714Y-108387714D01*
X230600380Y-95763904D02*
X230867047Y-95382952D01*
X231057523Y-95763904D02*
X231057523Y-94963904D01*
X230752761Y-94963904D01*
X230676571Y-95002000D01*
X230638476Y-95040095D01*
X230600380Y-95116285D01*
X230600380Y-95230571D01*
X230638476Y-95306761D01*
X230676571Y-95344857D01*
X230752761Y-95382952D01*
X231057523Y-95382952D01*
X230295619Y-95535333D02*
X229914666Y-95535333D01*
X230371809Y-95763904D02*
X230105142Y-94963904D01*
X229838476Y-95763904D01*
X229648000Y-94963904D02*
X229457523Y-95763904D01*
X229305142Y-95192476D01*
X229152761Y-95763904D01*
X228962285Y-94963904D01*
X230657523Y-97542000D02*
X230733714Y-97503904D01*
X230848000Y-97503904D01*
X230962285Y-97542000D01*
X231038476Y-97618190D01*
X231076571Y-97694380D01*
X231114666Y-97846761D01*
X231114666Y-97961047D01*
X231076571Y-98113428D01*
X231038476Y-98189619D01*
X230962285Y-98265809D01*
X230848000Y-98303904D01*
X230771809Y-98303904D01*
X230657523Y-98265809D01*
X230619428Y-98227714D01*
X230619428Y-97961047D01*
X230771809Y-97961047D01*
X230276571Y-98303904D02*
X230276571Y-97503904D01*
X229819428Y-98303904D01*
X229819428Y-97503904D01*
X229438476Y-98303904D02*
X229438476Y-97503904D01*
X229248000Y-97503904D01*
X229133714Y-97542000D01*
X229057523Y-97618190D01*
X229019428Y-97694380D01*
X228981333Y-97846761D01*
X228981333Y-97961047D01*
X229019428Y-98113428D01*
X229057523Y-98189619D01*
X229133714Y-98265809D01*
X229248000Y-98303904D01*
X229438476Y-98303904D01*
X231114666Y-102583904D02*
X230848000Y-103383904D01*
X230581333Y-102583904D01*
X229857523Y-103307714D02*
X229895619Y-103345809D01*
X230009904Y-103383904D01*
X230086095Y-103383904D01*
X230200380Y-103345809D01*
X230276571Y-103269619D01*
X230314666Y-103193428D01*
X230352761Y-103041047D01*
X230352761Y-102926761D01*
X230314666Y-102774380D01*
X230276571Y-102698190D01*
X230200380Y-102622000D01*
X230086095Y-102583904D01*
X230009904Y-102583904D01*
X229895619Y-102622000D01*
X229857523Y-102660095D01*
X229057523Y-103307714D02*
X229095619Y-103345809D01*
X229209904Y-103383904D01*
X229286095Y-103383904D01*
X229400380Y-103345809D01*
X229476571Y-103269619D01*
X229514666Y-103193428D01*
X229552761Y-103041047D01*
X229552761Y-102926761D01*
X229514666Y-102774380D01*
X229476571Y-102698190D01*
X229400380Y-102622000D01*
X229286095Y-102583904D01*
X229209904Y-102583904D01*
X229095619Y-102622000D01*
X229057523Y-102660095D01*
X230314666Y-105504857D02*
X230581333Y-105504857D01*
X230581333Y-105923904D02*
X230581333Y-105123904D01*
X230200380Y-105123904D01*
X229552761Y-105390571D02*
X229552761Y-105923904D01*
X229743238Y-105085809D02*
X229933714Y-105657238D01*
X229438476Y-105657238D01*
X230371809Y-115664857D02*
X230257523Y-115702952D01*
X230219428Y-115741047D01*
X230181333Y-115817238D01*
X230181333Y-115931523D01*
X230219428Y-116007714D01*
X230257523Y-116045809D01*
X230333714Y-116083904D01*
X230638476Y-116083904D01*
X230638476Y-115283904D01*
X230371809Y-115283904D01*
X230295619Y-115322000D01*
X230257523Y-115360095D01*
X230219428Y-115436285D01*
X230219428Y-115512476D01*
X230257523Y-115588666D01*
X230295619Y-115626761D01*
X230371809Y-115664857D01*
X230638476Y-115664857D01*
X229419428Y-116083904D02*
X229876571Y-116083904D01*
X229648000Y-116083904D02*
X229648000Y-115283904D01*
X229724190Y-115398190D01*
X229800380Y-115474380D01*
X229876571Y-115512476D01*
X230371809Y-118204857D02*
X230257523Y-118242952D01*
X230219428Y-118281047D01*
X230181333Y-118357238D01*
X230181333Y-118471523D01*
X230219428Y-118547714D01*
X230257523Y-118585809D01*
X230333714Y-118623904D01*
X230638476Y-118623904D01*
X230638476Y-117823904D01*
X230371809Y-117823904D01*
X230295619Y-117862000D01*
X230257523Y-117900095D01*
X230219428Y-117976285D01*
X230219428Y-118052476D01*
X230257523Y-118128666D01*
X230295619Y-118166761D01*
X230371809Y-118204857D01*
X230638476Y-118204857D01*
X229914666Y-117823904D02*
X229419428Y-117823904D01*
X229686095Y-118128666D01*
X229571809Y-118128666D01*
X229495619Y-118166761D01*
X229457523Y-118204857D01*
X229419428Y-118281047D01*
X229419428Y-118471523D01*
X229457523Y-118547714D01*
X229495619Y-118585809D01*
X229571809Y-118623904D01*
X229800380Y-118623904D01*
X229876571Y-118585809D01*
X229914666Y-118547714D01*
X230371809Y-123284857D02*
X230257523Y-123322952D01*
X230219428Y-123361047D01*
X230181333Y-123437238D01*
X230181333Y-123551523D01*
X230219428Y-123627714D01*
X230257523Y-123665809D01*
X230333714Y-123703904D01*
X230638476Y-123703904D01*
X230638476Y-122903904D01*
X230371809Y-122903904D01*
X230295619Y-122942000D01*
X230257523Y-122980095D01*
X230219428Y-123056285D01*
X230219428Y-123132476D01*
X230257523Y-123208666D01*
X230295619Y-123246761D01*
X230371809Y-123284857D01*
X230638476Y-123284857D01*
X229495619Y-122903904D02*
X229648000Y-122903904D01*
X229724190Y-122942000D01*
X229762285Y-122980095D01*
X229838476Y-123094380D01*
X229876571Y-123246761D01*
X229876571Y-123551523D01*
X229838476Y-123627714D01*
X229800380Y-123665809D01*
X229724190Y-123703904D01*
X229571809Y-123703904D01*
X229495619Y-123665809D01*
X229457523Y-123627714D01*
X229419428Y-123551523D01*
X229419428Y-123361047D01*
X229457523Y-123284857D01*
X229495619Y-123246761D01*
X229571809Y-123208666D01*
X229724190Y-123208666D01*
X229800380Y-123246761D01*
X229838476Y-123284857D01*
X229876571Y-123361047D01*
X219449809Y-123284857D02*
X219335523Y-123322952D01*
X219297428Y-123361047D01*
X219259333Y-123437238D01*
X219259333Y-123551523D01*
X219297428Y-123627714D01*
X219335523Y-123665809D01*
X219411714Y-123703904D01*
X219716476Y-123703904D01*
X219716476Y-122903904D01*
X219449809Y-122903904D01*
X219373619Y-122942000D01*
X219335523Y-122980095D01*
X219297428Y-123056285D01*
X219297428Y-123132476D01*
X219335523Y-123208666D01*
X219373619Y-123246761D01*
X219449809Y-123284857D01*
X219716476Y-123284857D01*
X218535523Y-122903904D02*
X218916476Y-122903904D01*
X218954571Y-123284857D01*
X218916476Y-123246761D01*
X218840285Y-123208666D01*
X218649809Y-123208666D01*
X218573619Y-123246761D01*
X218535523Y-123284857D01*
X218497428Y-123361047D01*
X218497428Y-123551523D01*
X218535523Y-123627714D01*
X218573619Y-123665809D01*
X218649809Y-123703904D01*
X218840285Y-123703904D01*
X218916476Y-123665809D01*
X218954571Y-123627714D01*
X219449809Y-120744857D02*
X219335523Y-120782952D01*
X219297428Y-120821047D01*
X219259333Y-120897238D01*
X219259333Y-121011523D01*
X219297428Y-121087714D01*
X219335523Y-121125809D01*
X219411714Y-121163904D01*
X219716476Y-121163904D01*
X219716476Y-120363904D01*
X219449809Y-120363904D01*
X219373619Y-120402000D01*
X219335523Y-120440095D01*
X219297428Y-120516285D01*
X219297428Y-120592476D01*
X219335523Y-120668666D01*
X219373619Y-120706761D01*
X219449809Y-120744857D01*
X219716476Y-120744857D01*
X218573619Y-120630571D02*
X218573619Y-121163904D01*
X218764095Y-120325809D02*
X218954571Y-120897238D01*
X218459333Y-120897238D01*
X219678380Y-118204857D02*
X219411714Y-118204857D01*
X219297428Y-118623904D02*
X219678380Y-118623904D01*
X219678380Y-117823904D01*
X219297428Y-117823904D01*
X218611714Y-117823904D02*
X218764095Y-117823904D01*
X218840285Y-117862000D01*
X218878380Y-117900095D01*
X218954571Y-118014380D01*
X218992666Y-118166761D01*
X218992666Y-118471523D01*
X218954571Y-118547714D01*
X218916476Y-118585809D01*
X218840285Y-118623904D01*
X218687904Y-118623904D01*
X218611714Y-118585809D01*
X218573619Y-118547714D01*
X218535523Y-118471523D01*
X218535523Y-118281047D01*
X218573619Y-118204857D01*
X218611714Y-118166761D01*
X218687904Y-118128666D01*
X218840285Y-118128666D01*
X218916476Y-118166761D01*
X218954571Y-118204857D01*
X218992666Y-118281047D01*
X219716476Y-116083904D02*
X219716476Y-115283904D01*
X219526000Y-115283904D01*
X219411714Y-115322000D01*
X219335523Y-115398190D01*
X219297428Y-115474380D01*
X219259333Y-115626761D01*
X219259333Y-115741047D01*
X219297428Y-115893428D01*
X219335523Y-115969619D01*
X219411714Y-116045809D01*
X219526000Y-116083904D01*
X219716476Y-116083904D01*
X218992666Y-115283904D02*
X218459333Y-115283904D01*
X218802190Y-116083904D01*
X219259333Y-113467714D02*
X219297428Y-113505809D01*
X219411714Y-113543904D01*
X219487904Y-113543904D01*
X219602190Y-113505809D01*
X219678380Y-113429619D01*
X219716476Y-113353428D01*
X219754571Y-113201047D01*
X219754571Y-113086761D01*
X219716476Y-112934380D01*
X219678380Y-112858190D01*
X219602190Y-112782000D01*
X219487904Y-112743904D01*
X219411714Y-112743904D01*
X219297428Y-112782000D01*
X219259333Y-112820095D01*
X218573619Y-112743904D02*
X218726000Y-112743904D01*
X218802190Y-112782000D01*
X218840285Y-112820095D01*
X218916476Y-112934380D01*
X218954571Y-113086761D01*
X218954571Y-113391523D01*
X218916476Y-113467714D01*
X218878380Y-113505809D01*
X218802190Y-113543904D01*
X218649809Y-113543904D01*
X218573619Y-113505809D01*
X218535523Y-113467714D01*
X218497428Y-113391523D01*
X218497428Y-113201047D01*
X218535523Y-113124857D01*
X218573619Y-113086761D01*
X218649809Y-113048666D01*
X218802190Y-113048666D01*
X218878380Y-113086761D01*
X218916476Y-113124857D01*
X218954571Y-113201047D01*
X219716476Y-111003904D02*
X219716476Y-110203904D01*
X219526000Y-110203904D01*
X219411714Y-110242000D01*
X219335523Y-110318190D01*
X219297428Y-110394380D01*
X219259333Y-110546761D01*
X219259333Y-110661047D01*
X219297428Y-110813428D01*
X219335523Y-110889619D01*
X219411714Y-110965809D01*
X219526000Y-111003904D01*
X219716476Y-111003904D01*
X218573619Y-110470571D02*
X218573619Y-111003904D01*
X218764095Y-110165809D02*
X218954571Y-110737238D01*
X218459333Y-110737238D01*
X219735523Y-100082000D02*
X219811714Y-100043904D01*
X219926000Y-100043904D01*
X220040285Y-100082000D01*
X220116476Y-100158190D01*
X220154571Y-100234380D01*
X220192666Y-100386761D01*
X220192666Y-100501047D01*
X220154571Y-100653428D01*
X220116476Y-100729619D01*
X220040285Y-100805809D01*
X219926000Y-100843904D01*
X219849809Y-100843904D01*
X219735523Y-100805809D01*
X219697428Y-100767714D01*
X219697428Y-100501047D01*
X219849809Y-100501047D01*
X219354571Y-100843904D02*
X219354571Y-100043904D01*
X218897428Y-100843904D01*
X218897428Y-100043904D01*
X218516476Y-100843904D02*
X218516476Y-100043904D01*
X218326000Y-100043904D01*
X218211714Y-100082000D01*
X218135523Y-100158190D01*
X218097428Y-100234380D01*
X218059333Y-100386761D01*
X218059333Y-100501047D01*
X218097428Y-100653428D01*
X218135523Y-100729619D01*
X218211714Y-100805809D01*
X218326000Y-100843904D01*
X218516476Y-100843904D01*
X219735523Y-102622000D02*
X219811714Y-102583904D01*
X219926000Y-102583904D01*
X220040285Y-102622000D01*
X220116476Y-102698190D01*
X220154571Y-102774380D01*
X220192666Y-102926761D01*
X220192666Y-103041047D01*
X220154571Y-103193428D01*
X220116476Y-103269619D01*
X220040285Y-103345809D01*
X219926000Y-103383904D01*
X219849809Y-103383904D01*
X219735523Y-103345809D01*
X219697428Y-103307714D01*
X219697428Y-103041047D01*
X219849809Y-103041047D01*
X219354571Y-103383904D02*
X219354571Y-102583904D01*
X218897428Y-103383904D01*
X218897428Y-102583904D01*
X218516476Y-103383904D02*
X218516476Y-102583904D01*
X218326000Y-102583904D01*
X218211714Y-102622000D01*
X218135523Y-102698190D01*
X218097428Y-102774380D01*
X218059333Y-102926761D01*
X218059333Y-103041047D01*
X218097428Y-103193428D01*
X218135523Y-103269619D01*
X218211714Y-103345809D01*
X218326000Y-103383904D01*
X218516476Y-103383904D01*
X219716476Y-105923904D02*
X219716476Y-105123904D01*
X219526000Y-105123904D01*
X219411714Y-105162000D01*
X219335523Y-105238190D01*
X219297428Y-105314380D01*
X219259333Y-105466761D01*
X219259333Y-105581047D01*
X219297428Y-105733428D01*
X219335523Y-105809619D01*
X219411714Y-105885809D01*
X219526000Y-105923904D01*
X219716476Y-105923904D01*
X218497428Y-105923904D02*
X218954571Y-105923904D01*
X218726000Y-105923904D02*
X218726000Y-105123904D01*
X218802190Y-105238190D01*
X218878380Y-105314380D01*
X218954571Y-105352476D01*
X219716476Y-108463904D02*
X219716476Y-107663904D01*
X219526000Y-107663904D01*
X219411714Y-107702000D01*
X219335523Y-107778190D01*
X219297428Y-107854380D01*
X219259333Y-108006761D01*
X219259333Y-108121047D01*
X219297428Y-108273428D01*
X219335523Y-108349619D01*
X219411714Y-108425809D01*
X219526000Y-108463904D01*
X219716476Y-108463904D01*
X218764095Y-107663904D02*
X218687904Y-107663904D01*
X218611714Y-107702000D01*
X218573619Y-107740095D01*
X218535523Y-107816285D01*
X218497428Y-107968666D01*
X218497428Y-108159142D01*
X218535523Y-108311523D01*
X218573619Y-108387714D01*
X218611714Y-108425809D01*
X218687904Y-108463904D01*
X218764095Y-108463904D01*
X218840285Y-108425809D01*
X218878380Y-108387714D01*
X218916476Y-108311523D01*
X218954571Y-108159142D01*
X218954571Y-107968666D01*
X218916476Y-107816285D01*
X218878380Y-107740095D01*
X218840285Y-107702000D01*
X218764095Y-107663904D01*
X219716476Y-98303904D02*
X219716476Y-97503904D01*
X219526000Y-97503904D01*
X219411714Y-97542000D01*
X219335523Y-97618190D01*
X219297428Y-97694380D01*
X219259333Y-97846761D01*
X219259333Y-97961047D01*
X219297428Y-98113428D01*
X219335523Y-98189619D01*
X219411714Y-98265809D01*
X219526000Y-98303904D01*
X219716476Y-98303904D01*
X218954571Y-97580095D02*
X218916476Y-97542000D01*
X218840285Y-97503904D01*
X218649809Y-97503904D01*
X218573619Y-97542000D01*
X218535523Y-97580095D01*
X218497428Y-97656285D01*
X218497428Y-97732476D01*
X218535523Y-97846761D01*
X218992666Y-98303904D01*
X218497428Y-98303904D01*
%TD*%
%LPC*%
D12*
%TO.C,USB1*%
X230258000Y-93590800D03*
X219018000Y-93590800D03*
D13*
X219018000Y-97590800D03*
X230258000Y-97590800D03*
%TD*%
D14*
%TO.C,U1*%
X232207000Y-95402000D03*
X216967000Y-123342000D03*
X232207000Y-97942000D03*
X232207000Y-100482000D03*
X232207000Y-103022000D03*
X232207000Y-105562000D03*
X232207000Y-108102000D03*
X232207000Y-110642000D03*
X232207000Y-113182000D03*
X232207000Y-115722000D03*
X232207000Y-118262000D03*
X232207000Y-120802000D03*
X232207000Y-123342000D03*
X216967000Y-120802000D03*
X216967000Y-118262000D03*
X216967000Y-115722000D03*
X216967000Y-113182000D03*
X216967000Y-110642000D03*
X216967000Y-108102000D03*
X216967000Y-105562000D03*
X216967000Y-103022000D03*
X216967000Y-100482000D03*
X216967000Y-97942000D03*
D15*
X216967000Y-95402000D03*
%TD*%
M02*
