M48
; DRILL file {KiCad 5.1.9} date Mon Mar  1 07:28:28 2021
; FORMAT={-:-/ absolute / inch / decimal}
; #@! TF.CreationDate,2021-03-01T07:28:28+02:00
; #@! TF.GenerationSoftware,Kicad,Pcbnew,5.1.9
; #@! TF.FileFunction,Plated,1,2,PTH
FMAT,2
INCH
T1C0.0118
T2C0.0236
T3C0.0430
%
G90
G05
T1
X8.5875Y-4.5
X8.6117Y-4.3075
X8.6241Y-4.6436
X8.6268Y-4.5784
X8.6299Y-4.7205
X8.6378Y-4.7953
X8.6475Y-4.59
X8.666Y-4.4494
X8.6667Y-4.5471
X8.6683Y-4.1417
X8.6683Y-4.4259
X8.6705Y-4.4726
X8.6721Y-4.4961
X8.7077Y-4.015
X8.7274Y-4.0849
X8.7323Y-4.1811
X8.7375Y-4.22
X8.7412Y-4.2479
X8.748Y-3.9363
X8.748Y-3.9921
X8.752Y-4.626
X8.7599Y-4.2334
X8.7825Y-4.25
X8.7953Y-4.1339
X8.8042Y-3.9248
X8.8149Y-4.7149
X8.8539Y-3.924
X8.86Y-4.69
X8.8765Y-4.1231
X8.91Y-4.1175
X8.9173Y-4.6693
X8.936Y-3.936
X8.936Y-4.038
X8.9375Y-4.2225
X8.95Y-4.84
X8.9528Y-4.6378
X8.9724Y-4.0039
X9.02Y-4.6275
X9.0276Y-4.0709
X9.0276Y-4.7402
X9.034Y-4.5363
X9.0551Y-4.437
X9.0906Y-4.5197
T3
X8.542Y-3.756
X8.542Y-3.856
X8.542Y-3.956
X8.542Y-4.056
X8.542Y-4.156
X8.542Y-4.256
X8.542Y-4.356
X8.542Y-4.456
X8.542Y-4.556
X8.542Y-4.656
X8.542Y-4.756
X8.542Y-4.856
X9.142Y-3.756
X9.142Y-3.856
X9.142Y-3.956
X9.142Y-4.056
X9.142Y-4.156
X9.142Y-4.256
X9.142Y-4.356
X9.142Y-4.456
X9.142Y-4.556
X9.142Y-4.656
X9.142Y-4.756
X9.142Y-4.856
T2
G00X8.6228Y-3.6611
M15
G01X8.6228Y-3.7083
M16
G05
G00X8.6228Y-3.8264
M15
G01X8.6228Y-3.8579
M16
G05
G00X9.0653Y-3.6611
M15
G01X9.0653Y-3.7083
M16
G05
G00X9.0653Y-3.8264
M15
G01X9.0653Y-3.8579
M16
G05
T0
M30
