%TF.GenerationSoftware,KiCad,Pcbnew,5.1.9*%
%TF.CreationDate,2021-03-01T07:28:27+02:00*%
%TF.ProjectId,beater-c,62656174-6572-42d6-932e-6b696361645f,rev?*%
%TF.SameCoordinates,Original*%
%TF.FileFunction,Copper,L2,Bot*%
%TF.FilePolarity,Positive*%
%FSLAX46Y46*%
G04 Gerber Fmt 4.6, Leading zero omitted, Abs format (unit mm)*
G04 Created by KiCad (PCBNEW 5.1.9) date 2021-03-01 07:28:27*
%MOMM*%
%LPD*%
G01*
G04 APERTURE LIST*
%TA.AperFunction,ComponentPad*%
%ADD10O,1.000000X2.200000*%
%TD*%
%TA.AperFunction,ComponentPad*%
%ADD11O,1.000000X1.800000*%
%TD*%
%TA.AperFunction,ComponentPad*%
%ADD12C,1.752600*%
%TD*%
%TA.AperFunction,ComponentPad*%
%ADD13R,1.752600X1.752600*%
%TD*%
%TA.AperFunction,ViaPad*%
%ADD14C,0.400000*%
%TD*%
%TA.AperFunction,Conductor*%
%ADD15C,0.200000*%
%TD*%
%TA.AperFunction,Conductor*%
%ADD16C,0.254000*%
%TD*%
%TA.AperFunction,Conductor*%
%ADD17C,0.100000*%
%TD*%
G04 APERTURE END LIST*
D10*
%TO.P,USB1,13*%
%TO.N,Net-(USB1-Pad13)*%
X230258000Y-93590800D03*
X219018000Y-93590800D03*
D11*
X219018000Y-97590800D03*
X230258000Y-97590800D03*
%TD*%
D12*
%TO.P,U1,24*%
%TO.N,Net-(U1-Pad24)*%
X232207000Y-95402000D03*
%TO.P,U1,12*%
%TO.N,B5*%
X216967000Y-123342000D03*
%TO.P,U1,23*%
%TO.N,GND*%
X232207000Y-97942000D03*
%TO.P,U1,22*%
%TO.N,RST*%
X232207000Y-100482000D03*
%TO.P,U1,21*%
%TO.N,+5V*%
X232207000Y-103022000D03*
%TO.P,U1,20*%
%TO.N,F4*%
X232207000Y-105562000D03*
%TO.P,U1,19*%
%TO.N,F5*%
X232207000Y-108102000D03*
%TO.P,U1,18*%
%TO.N,F6*%
X232207000Y-110642000D03*
%TO.P,U1,17*%
%TO.N,F7*%
X232207000Y-113182000D03*
%TO.P,U1,16*%
%TO.N,B1*%
X232207000Y-115722000D03*
%TO.P,U1,15*%
%TO.N,B3*%
X232207000Y-118262000D03*
%TO.P,U1,14*%
%TO.N,B2*%
X232207000Y-120802000D03*
%TO.P,U1,13*%
%TO.N,B6*%
X232207000Y-123342000D03*
%TO.P,U1,11*%
%TO.N,B4*%
X216967000Y-120802000D03*
%TO.P,U1,10*%
%TO.N,E6*%
X216967000Y-118262000D03*
%TO.P,U1,9*%
%TO.N,D7*%
X216967000Y-115722000D03*
%TO.P,U1,8*%
%TO.N,C6*%
X216967000Y-113182000D03*
%TO.P,U1,7*%
%TO.N,D4*%
X216967000Y-110642000D03*
%TO.P,U1,6*%
%TO.N,D0*%
X216967000Y-108102000D03*
%TO.P,U1,5*%
%TO.N,D1*%
X216967000Y-105562000D03*
%TO.P,U1,4*%
%TO.N,GND*%
X216967000Y-103022000D03*
%TO.P,U1,3*%
X216967000Y-100482000D03*
%TO.P,U1,2*%
%TO.N,D2*%
X216967000Y-97942000D03*
D13*
%TO.P,U1,1*%
%TO.N,D3*%
X216967000Y-95402000D03*
%TD*%
D14*
%TO.N,GND*%
X227330000Y-122936000D03*
X220134592Y-115495957D03*
X218121549Y-114300000D03*
X219200000Y-119900000D03*
X220175200Y-105200000D03*
X222200000Y-101400000D03*
X229300000Y-103400000D03*
X227900000Y-101700000D03*
X229300000Y-120400000D03*
X230000000Y-112700000D03*
X219400000Y-121800000D03*
%TO.N,+5V*%
X223400000Y-105000000D03*
X225464350Y-104727043D03*
X222300000Y-117500000D03*
X227400000Y-117800000D03*
X230900000Y-114800000D03*
X229464000Y-115222000D03*
X221800000Y-106200000D03*
%TO.N,VBUS*%
X226974400Y-99974400D03*
X222199200Y-99982000D03*
X226974400Y-102565200D03*
%TO.N,D+*%
X224888000Y-99669600D03*
X223626429Y-99690905D03*
%TO.N,RST*%
X221932500Y-107188000D03*
X226314000Y-104584500D03*
%TO.N,B1*%
X223075500Y-107950000D03*
%TO.N,B3*%
X222026990Y-107896061D03*
%TO.N,B2*%
X222501186Y-107528447D03*
X229108000Y-117538500D03*
%TO.N,E6*%
X227012500Y-107251500D03*
X221675200Y-103757567D03*
%TO.N,D7*%
X219051795Y-117948205D03*
%TO.N,C6*%
X226500000Y-118600000D03*
%TO.N,D0*%
X220175200Y-112416887D03*
X218736800Y-109410500D03*
%TO.N,D1*%
X220116400Y-113014000D03*
%TO.N,D2*%
X220230609Y-113603032D03*
%TO.N,D3*%
X220272584Y-114201564D03*
X221175200Y-101981000D03*
%TO.N,Net-(U2-Pad17)*%
X219646500Y-116586000D03*
X225044000Y-119126000D03*
%TO.N,Net-(U2-Pad16)*%
X223898954Y-119758954D03*
X219121549Y-116290168D03*
%TD*%
D15*
%TO.N,GND*%
X218938635Y-114300000D02*
X218121549Y-114300000D01*
X220134592Y-115495957D02*
X218938635Y-114300000D01*
X219145000Y-105200000D02*
X220175200Y-105200000D01*
X216967000Y-103022000D02*
X219145000Y-105200000D01*
%TO.N,+5V*%
X223672957Y-104727043D02*
X225464350Y-104727043D01*
X223400000Y-105000000D02*
X223672957Y-104727043D01*
X230900000Y-104329000D02*
X232207000Y-103022000D01*
X230900000Y-114800000D02*
X230900000Y-104329000D01*
X222600000Y-117800000D02*
X227400000Y-117800000D01*
X222300000Y-117500000D02*
X222600000Y-117800000D01*
X229886000Y-114800000D02*
X229464000Y-115222000D01*
X230900000Y-114800000D02*
X229886000Y-114800000D01*
X222200000Y-106200000D02*
X223400000Y-105000000D01*
X221800000Y-106200000D02*
X222200000Y-106200000D01*
%TO.N,VBUS*%
X222408106Y-100190906D02*
X222199200Y-99982000D01*
X226757894Y-100190906D02*
X222408106Y-100190906D01*
X226974400Y-99974400D02*
X226757894Y-100190906D01*
X226974400Y-99974400D02*
X226974400Y-102565200D01*
%TO.N,D+*%
X223647734Y-99669600D02*
X223626429Y-99690905D01*
X224888000Y-99669600D02*
X223647734Y-99669600D01*
%TO.N,RST*%
X223910499Y-106988001D02*
X226314000Y-104584500D01*
X222132499Y-106988001D02*
X223910499Y-106988001D01*
X221932500Y-107188000D02*
X222132499Y-106988001D01*
%TO.N,B1*%
X223075500Y-107950000D02*
X223075500Y-110363000D01*
X228434500Y-115722000D02*
X232207000Y-115722000D01*
X223075500Y-110363000D02*
X228434500Y-115722000D01*
%TO.N,B3*%
X222026990Y-107896061D02*
X222026990Y-111486190D01*
X228802800Y-118262000D02*
X232207000Y-118262000D01*
X222026990Y-111486190D02*
X228802800Y-118262000D01*
%TO.N,B2*%
X222575499Y-111005999D02*
X229108000Y-117538500D01*
X222575499Y-107602760D02*
X222575499Y-111005999D01*
X222501186Y-107528447D02*
X222575499Y-107602760D01*
%TO.N,E6*%
X226630067Y-103757567D02*
X224664433Y-103757567D01*
X227012500Y-107251500D02*
X227012500Y-104140000D01*
X224664433Y-103757567D02*
X221675200Y-103757567D01*
X227012500Y-104140000D02*
X226630067Y-103757567D01*
X224788567Y-103757567D02*
X224664433Y-103757567D01*
%TO.N,D7*%
X216967000Y-115863410D02*
X216967000Y-115722000D01*
X219051795Y-117948205D02*
X216967000Y-115863410D01*
%TO.N,C6*%
X221691800Y-117906800D02*
X221706800Y-117906800D01*
X222400000Y-118600000D02*
X226000000Y-118600000D01*
X221706800Y-117906800D02*
X222400000Y-118600000D01*
X226000000Y-118600000D02*
X226500000Y-118600000D01*
X218200000Y-115500000D02*
X218490167Y-115790167D01*
X221706800Y-117906298D02*
X221706800Y-117906800D01*
X219590669Y-115790167D02*
X221706800Y-117906298D01*
X218490167Y-115790167D02*
X219590669Y-115790167D01*
X216967000Y-113981074D02*
X216967000Y-113182000D01*
X218200000Y-115214074D02*
X216967000Y-113981074D01*
X218200000Y-115500000D02*
X218200000Y-115214074D01*
%TO.N,D0*%
X220175200Y-112416887D02*
X218658697Y-112416887D01*
X218658697Y-112416887D02*
X218636810Y-112395000D01*
X218636810Y-112395000D02*
X218636810Y-109658190D01*
X218736800Y-109558200D02*
X218736800Y-109410500D01*
X218636810Y-109658190D02*
X218736800Y-109558200D01*
%TO.N,D1*%
X220116400Y-113014000D02*
X218525600Y-113014000D01*
X218525600Y-113014000D02*
X218236800Y-112725200D01*
X218236800Y-106831800D02*
X216967000Y-105562000D01*
X218236800Y-112725200D02*
X218236800Y-106831800D01*
%TO.N,D2*%
X220430608Y-113403033D02*
X220454567Y-113403033D01*
X220230609Y-113603032D02*
X220430608Y-113403033D01*
X220454567Y-113403033D02*
X220675200Y-113182400D01*
X220675200Y-101650200D02*
X216967000Y-97942000D01*
X220675200Y-113182400D02*
X220675200Y-101650200D01*
%TO.N,D3*%
X221175200Y-113581790D02*
X221175200Y-102870000D01*
X220555426Y-114201564D02*
X221175200Y-113581790D01*
X220272584Y-114201564D02*
X220555426Y-114201564D01*
X221175200Y-102870000D02*
X221175200Y-101981000D01*
%TO.N,Net-(U2-Pad17)*%
X222186500Y-119126000D02*
X225044000Y-119126000D01*
X219646500Y-116586000D02*
X222186500Y-119126000D01*
%TO.N,Net-(U2-Pad16)*%
X222079452Y-119758954D02*
X223898954Y-119758954D01*
X219137699Y-116817201D02*
X222079452Y-119758954D01*
X219137699Y-116306318D02*
X219121549Y-116290168D01*
X219137699Y-116817201D02*
X219137699Y-116306318D01*
%TD*%
D16*
%TO.N,GND*%
X228257546Y-118756193D02*
X228280562Y-118784238D01*
X228392480Y-118876087D01*
X228520167Y-118944337D01*
X228658715Y-118986365D01*
X228766695Y-118997000D01*
X228766704Y-118997000D01*
X228802799Y-119000555D01*
X228838894Y-118997000D01*
X230880486Y-118997000D01*
X231033096Y-119225398D01*
X231243602Y-119435904D01*
X231387420Y-119532000D01*
X231243602Y-119628096D01*
X231033096Y-119838602D01*
X230867703Y-120086131D01*
X230753778Y-120361170D01*
X230695700Y-120653150D01*
X230695700Y-120950850D01*
X230753778Y-121242830D01*
X230867703Y-121517869D01*
X231033096Y-121765398D01*
X231243602Y-121975904D01*
X231387420Y-122072000D01*
X231243602Y-122168096D01*
X231033096Y-122378602D01*
X230867703Y-122626131D01*
X230753778Y-122901170D01*
X230695700Y-123193150D01*
X230695700Y-123490850D01*
X230753778Y-123782830D01*
X230867703Y-124057869D01*
X230907547Y-124117500D01*
X218266453Y-124117500D01*
X218306297Y-124057869D01*
X218420222Y-123782830D01*
X218478300Y-123490850D01*
X218478300Y-123193150D01*
X218420222Y-122901170D01*
X218306297Y-122626131D01*
X218140904Y-122378602D01*
X217930398Y-122168096D01*
X217786580Y-122072000D01*
X217930398Y-121975904D01*
X218140904Y-121765398D01*
X218306297Y-121517869D01*
X218420222Y-121242830D01*
X218478300Y-120950850D01*
X218478300Y-120653150D01*
X218420222Y-120361170D01*
X218306297Y-120086131D01*
X218140904Y-119838602D01*
X217930398Y-119628096D01*
X217786580Y-119532000D01*
X217930398Y-119435904D01*
X218140904Y-119225398D01*
X218306297Y-118977869D01*
X218420222Y-118702830D01*
X218454288Y-118531566D01*
X218519514Y-118596792D01*
X218656274Y-118688172D01*
X218808235Y-118751116D01*
X218969555Y-118783205D01*
X219134035Y-118783205D01*
X219295355Y-118751116D01*
X219447316Y-118688172D01*
X219584076Y-118596792D01*
X219700382Y-118480486D01*
X219724877Y-118443826D01*
X221534198Y-120253147D01*
X221557214Y-120281192D01*
X221669132Y-120373041D01*
X221796819Y-120441291D01*
X221893338Y-120470570D01*
X221935366Y-120483319D01*
X222079452Y-120497510D01*
X222115557Y-120493954D01*
X223495999Y-120493954D01*
X223503433Y-120498921D01*
X223655394Y-120561865D01*
X223816714Y-120593954D01*
X223981194Y-120593954D01*
X224142514Y-120561865D01*
X224294475Y-120498921D01*
X224431235Y-120407541D01*
X224547541Y-120291235D01*
X224638921Y-120154475D01*
X224701865Y-120002514D01*
X224722895Y-119896791D01*
X224800440Y-119928911D01*
X224961760Y-119961000D01*
X225126240Y-119961000D01*
X225287560Y-119928911D01*
X225439521Y-119865967D01*
X225576281Y-119774587D01*
X225692587Y-119658281D01*
X225783967Y-119521521D01*
X225846911Y-119369560D01*
X225853786Y-119335000D01*
X226097045Y-119335000D01*
X226104479Y-119339967D01*
X226256440Y-119402911D01*
X226417760Y-119435000D01*
X226582240Y-119435000D01*
X226743560Y-119402911D01*
X226895521Y-119339967D01*
X227032281Y-119248587D01*
X227148587Y-119132281D01*
X227239967Y-118995521D01*
X227302911Y-118843560D01*
X227335000Y-118682240D01*
X227335000Y-118635000D01*
X227482240Y-118635000D01*
X227643560Y-118602911D01*
X227795521Y-118539967D01*
X227932281Y-118448587D01*
X227941111Y-118439757D01*
X228257546Y-118756193D01*
%TA.AperFunction,Conductor*%
D17*
G36*
X228257546Y-118756193D02*
G01*
X228280562Y-118784238D01*
X228392480Y-118876087D01*
X228520167Y-118944337D01*
X228658715Y-118986365D01*
X228766695Y-118997000D01*
X228766704Y-118997000D01*
X228802799Y-119000555D01*
X228838894Y-118997000D01*
X230880486Y-118997000D01*
X231033096Y-119225398D01*
X231243602Y-119435904D01*
X231387420Y-119532000D01*
X231243602Y-119628096D01*
X231033096Y-119838602D01*
X230867703Y-120086131D01*
X230753778Y-120361170D01*
X230695700Y-120653150D01*
X230695700Y-120950850D01*
X230753778Y-121242830D01*
X230867703Y-121517869D01*
X231033096Y-121765398D01*
X231243602Y-121975904D01*
X231387420Y-122072000D01*
X231243602Y-122168096D01*
X231033096Y-122378602D01*
X230867703Y-122626131D01*
X230753778Y-122901170D01*
X230695700Y-123193150D01*
X230695700Y-123490850D01*
X230753778Y-123782830D01*
X230867703Y-124057869D01*
X230907547Y-124117500D01*
X218266453Y-124117500D01*
X218306297Y-124057869D01*
X218420222Y-123782830D01*
X218478300Y-123490850D01*
X218478300Y-123193150D01*
X218420222Y-122901170D01*
X218306297Y-122626131D01*
X218140904Y-122378602D01*
X217930398Y-122168096D01*
X217786580Y-122072000D01*
X217930398Y-121975904D01*
X218140904Y-121765398D01*
X218306297Y-121517869D01*
X218420222Y-121242830D01*
X218478300Y-120950850D01*
X218478300Y-120653150D01*
X218420222Y-120361170D01*
X218306297Y-120086131D01*
X218140904Y-119838602D01*
X217930398Y-119628096D01*
X217786580Y-119532000D01*
X217930398Y-119435904D01*
X218140904Y-119225398D01*
X218306297Y-118977869D01*
X218420222Y-118702830D01*
X218454288Y-118531566D01*
X218519514Y-118596792D01*
X218656274Y-118688172D01*
X218808235Y-118751116D01*
X218969555Y-118783205D01*
X219134035Y-118783205D01*
X219295355Y-118751116D01*
X219447316Y-118688172D01*
X219584076Y-118596792D01*
X219700382Y-118480486D01*
X219724877Y-118443826D01*
X221534198Y-120253147D01*
X221557214Y-120281192D01*
X221669132Y-120373041D01*
X221796819Y-120441291D01*
X221893338Y-120470570D01*
X221935366Y-120483319D01*
X222079452Y-120497510D01*
X222115557Y-120493954D01*
X223495999Y-120493954D01*
X223503433Y-120498921D01*
X223655394Y-120561865D01*
X223816714Y-120593954D01*
X223981194Y-120593954D01*
X224142514Y-120561865D01*
X224294475Y-120498921D01*
X224431235Y-120407541D01*
X224547541Y-120291235D01*
X224638921Y-120154475D01*
X224701865Y-120002514D01*
X224722895Y-119896791D01*
X224800440Y-119928911D01*
X224961760Y-119961000D01*
X225126240Y-119961000D01*
X225287560Y-119928911D01*
X225439521Y-119865967D01*
X225576281Y-119774587D01*
X225692587Y-119658281D01*
X225783967Y-119521521D01*
X225846911Y-119369560D01*
X225853786Y-119335000D01*
X226097045Y-119335000D01*
X226104479Y-119339967D01*
X226256440Y-119402911D01*
X226417760Y-119435000D01*
X226582240Y-119435000D01*
X226743560Y-119402911D01*
X226895521Y-119339967D01*
X227032281Y-119248587D01*
X227148587Y-119132281D01*
X227239967Y-118995521D01*
X227302911Y-118843560D01*
X227335000Y-118682240D01*
X227335000Y-118635000D01*
X227482240Y-118635000D01*
X227643560Y-118602911D01*
X227795521Y-118539967D01*
X227932281Y-118448587D01*
X227941111Y-118439757D01*
X228257546Y-118756193D01*
G37*
%TD.AperFunction*%
D16*
X226566353Y-117065000D02*
X223013588Y-117065000D01*
X222948587Y-116967719D01*
X222832281Y-116851413D01*
X222695521Y-116760033D01*
X222543560Y-116697089D01*
X222382240Y-116665000D01*
X222217760Y-116665000D01*
X222056440Y-116697089D01*
X221904479Y-116760033D01*
X221767719Y-116851413D01*
X221729540Y-116889592D01*
X220135927Y-115295979D01*
X220112907Y-115267929D01*
X220000989Y-115176080D01*
X219873302Y-115107830D01*
X219734754Y-115065802D01*
X219626774Y-115055167D01*
X219590669Y-115051611D01*
X219554564Y-115055167D01*
X218919869Y-115055167D01*
X218882337Y-114931441D01*
X218814087Y-114803754D01*
X218722238Y-114691836D01*
X218694193Y-114668820D01*
X218152867Y-114127494D01*
X218306297Y-113897869D01*
X218373387Y-113735899D01*
X218381515Y-113738365D01*
X218525600Y-113752556D01*
X218561705Y-113749000D01*
X219408285Y-113749000D01*
X219427698Y-113846592D01*
X219471760Y-113952967D01*
X219469673Y-113958004D01*
X219437584Y-114119324D01*
X219437584Y-114283804D01*
X219469673Y-114445124D01*
X219532617Y-114597085D01*
X219623997Y-114733845D01*
X219740303Y-114850151D01*
X219877063Y-114941531D01*
X220029024Y-115004475D01*
X220190344Y-115036564D01*
X220354824Y-115036564D01*
X220516144Y-115004475D01*
X220668105Y-114941531D01*
X220690062Y-114926860D01*
X220699511Y-114925929D01*
X220838059Y-114883901D01*
X220965746Y-114815651D01*
X221077664Y-114723802D01*
X221100684Y-114695752D01*
X221669397Y-114127040D01*
X221697437Y-114104028D01*
X221720450Y-114075987D01*
X221720453Y-114075984D01*
X221789287Y-113992110D01*
X221795186Y-113981074D01*
X221857537Y-113864423D01*
X221899565Y-113725875D01*
X221910200Y-113617895D01*
X221910200Y-113617894D01*
X221913756Y-113581790D01*
X221910200Y-113545685D01*
X221910200Y-112408846D01*
X226566353Y-117065000D01*
%TA.AperFunction,Conductor*%
D17*
G36*
X226566353Y-117065000D02*
G01*
X223013588Y-117065000D01*
X222948587Y-116967719D01*
X222832281Y-116851413D01*
X222695521Y-116760033D01*
X222543560Y-116697089D01*
X222382240Y-116665000D01*
X222217760Y-116665000D01*
X222056440Y-116697089D01*
X221904479Y-116760033D01*
X221767719Y-116851413D01*
X221729540Y-116889592D01*
X220135927Y-115295979D01*
X220112907Y-115267929D01*
X220000989Y-115176080D01*
X219873302Y-115107830D01*
X219734754Y-115065802D01*
X219626774Y-115055167D01*
X219590669Y-115051611D01*
X219554564Y-115055167D01*
X218919869Y-115055167D01*
X218882337Y-114931441D01*
X218814087Y-114803754D01*
X218722238Y-114691836D01*
X218694193Y-114668820D01*
X218152867Y-114127494D01*
X218306297Y-113897869D01*
X218373387Y-113735899D01*
X218381515Y-113738365D01*
X218525600Y-113752556D01*
X218561705Y-113749000D01*
X219408285Y-113749000D01*
X219427698Y-113846592D01*
X219471760Y-113952967D01*
X219469673Y-113958004D01*
X219437584Y-114119324D01*
X219437584Y-114283804D01*
X219469673Y-114445124D01*
X219532617Y-114597085D01*
X219623997Y-114733845D01*
X219740303Y-114850151D01*
X219877063Y-114941531D01*
X220029024Y-115004475D01*
X220190344Y-115036564D01*
X220354824Y-115036564D01*
X220516144Y-115004475D01*
X220668105Y-114941531D01*
X220690062Y-114926860D01*
X220699511Y-114925929D01*
X220838059Y-114883901D01*
X220965746Y-114815651D01*
X221077664Y-114723802D01*
X221100684Y-114695752D01*
X221669397Y-114127040D01*
X221697437Y-114104028D01*
X221720450Y-114075987D01*
X221720453Y-114075984D01*
X221789287Y-113992110D01*
X221795186Y-113981074D01*
X221857537Y-113864423D01*
X221899565Y-113725875D01*
X221910200Y-113617895D01*
X221910200Y-113617894D01*
X221913756Y-113581790D01*
X221910200Y-113545685D01*
X221910200Y-112408846D01*
X226566353Y-117065000D01*
G37*
%TD.AperFunction*%
D16*
X232400748Y-97927858D02*
X232386605Y-97942000D01*
X232400748Y-97956143D01*
X232221142Y-98135748D01*
X232207000Y-98121605D01*
X231339437Y-98989169D01*
X231406809Y-99199045D01*
X231243602Y-99308096D01*
X231033096Y-99518602D01*
X230867703Y-99766131D01*
X230753778Y-100041170D01*
X230695700Y-100333150D01*
X230695700Y-100630850D01*
X230753778Y-100922830D01*
X230867703Y-101197869D01*
X231033096Y-101445398D01*
X231243602Y-101655904D01*
X231387420Y-101752000D01*
X231243602Y-101848096D01*
X231033096Y-102058602D01*
X230867703Y-102306131D01*
X230753778Y-102581170D01*
X230695700Y-102873150D01*
X230695700Y-103170850D01*
X230749289Y-103440264D01*
X230405808Y-103783746D01*
X230377763Y-103806762D01*
X230285914Y-103918680D01*
X230250253Y-103985398D01*
X230217664Y-104046367D01*
X230175635Y-104184915D01*
X230161444Y-104329000D01*
X230165001Y-104365115D01*
X230165000Y-114065000D01*
X229922096Y-114065000D01*
X229885999Y-114061445D01*
X229849902Y-114065000D01*
X229849895Y-114065000D01*
X229756132Y-114074235D01*
X229741914Y-114075635D01*
X229740764Y-114075984D01*
X229603367Y-114117663D01*
X229475680Y-114185913D01*
X229363762Y-114277762D01*
X229340741Y-114305813D01*
X229229209Y-114417345D01*
X229220440Y-114419089D01*
X229068479Y-114482033D01*
X228931719Y-114573413D01*
X228815413Y-114689719D01*
X228724033Y-114826479D01*
X228681386Y-114929439D01*
X223810500Y-110058554D01*
X223810500Y-108352955D01*
X223815467Y-108345521D01*
X223878411Y-108193560D01*
X223910500Y-108032240D01*
X223910500Y-107867760D01*
X223881851Y-107723735D01*
X223910499Y-107726557D01*
X223946604Y-107723001D01*
X224054584Y-107712366D01*
X224193132Y-107670338D01*
X224320819Y-107602088D01*
X224432737Y-107510239D01*
X224455758Y-107482189D01*
X226277501Y-105660446D01*
X226277500Y-106848545D01*
X226272533Y-106855979D01*
X226209589Y-107007940D01*
X226177500Y-107169260D01*
X226177500Y-107333740D01*
X226209589Y-107495060D01*
X226272533Y-107647021D01*
X226363913Y-107783781D01*
X226480219Y-107900087D01*
X226616979Y-107991467D01*
X226768940Y-108054411D01*
X226930260Y-108086500D01*
X227094740Y-108086500D01*
X227256060Y-108054411D01*
X227408021Y-107991467D01*
X227544781Y-107900087D01*
X227661087Y-107783781D01*
X227752467Y-107647021D01*
X227815411Y-107495060D01*
X227847500Y-107333740D01*
X227847500Y-107169260D01*
X227815411Y-107007940D01*
X227752467Y-106855979D01*
X227747500Y-106848545D01*
X227747500Y-104176105D01*
X227751056Y-104140000D01*
X227736865Y-103995915D01*
X227729129Y-103970413D01*
X227694837Y-103857367D01*
X227626587Y-103729680D01*
X227534738Y-103617762D01*
X227506687Y-103594741D01*
X227261869Y-103349923D01*
X227369921Y-103305167D01*
X227506681Y-103213787D01*
X227622987Y-103097481D01*
X227714367Y-102960721D01*
X227777311Y-102808760D01*
X227809400Y-102647440D01*
X227809400Y-102482960D01*
X227777311Y-102321640D01*
X227714367Y-102169679D01*
X227709400Y-102162245D01*
X227709400Y-100377355D01*
X227714367Y-100369921D01*
X227777311Y-100217960D01*
X227809400Y-100056640D01*
X227809400Y-99892160D01*
X227777311Y-99730840D01*
X227714367Y-99578879D01*
X227622987Y-99442119D01*
X227506681Y-99325813D01*
X227369921Y-99234433D01*
X227217960Y-99171489D01*
X227056640Y-99139400D01*
X226892160Y-99139400D01*
X226730840Y-99171489D01*
X226578879Y-99234433D01*
X226442119Y-99325813D01*
X226325813Y-99442119D01*
X226316601Y-99455906D01*
X225696852Y-99455906D01*
X225690911Y-99426040D01*
X225627967Y-99274079D01*
X225536587Y-99137319D01*
X225420281Y-99021013D01*
X225283521Y-98929633D01*
X225131560Y-98866689D01*
X224970240Y-98834600D01*
X224805760Y-98834600D01*
X224644440Y-98866689D01*
X224492479Y-98929633D01*
X224485045Y-98934600D01*
X223982506Y-98934600D01*
X223869989Y-98887994D01*
X223708669Y-98855905D01*
X223544189Y-98855905D01*
X223382869Y-98887994D01*
X223230908Y-98950938D01*
X223094148Y-99042318D01*
X222977842Y-99158624D01*
X222886462Y-99295384D01*
X222829931Y-99431863D01*
X222731481Y-99333413D01*
X222594721Y-99242033D01*
X222442760Y-99179089D01*
X222281440Y-99147000D01*
X222116960Y-99147000D01*
X221955640Y-99179089D01*
X221803679Y-99242033D01*
X221666919Y-99333413D01*
X221550613Y-99449719D01*
X221459233Y-99586479D01*
X221396289Y-99738440D01*
X221364200Y-99899760D01*
X221364200Y-100064240D01*
X221396289Y-100225560D01*
X221459233Y-100377521D01*
X221550613Y-100514281D01*
X221666919Y-100630587D01*
X221803679Y-100721967D01*
X221955640Y-100784911D01*
X221978971Y-100789552D01*
X221997786Y-100804993D01*
X222020250Y-100817000D01*
X222125473Y-100873243D01*
X222264021Y-100915271D01*
X222408106Y-100929462D01*
X222444211Y-100925906D01*
X226239400Y-100925906D01*
X226239401Y-102162244D01*
X226234433Y-102169679D01*
X226171489Y-102321640D01*
X226139400Y-102482960D01*
X226139400Y-102647440D01*
X226171489Y-102808760D01*
X226234433Y-102960721D01*
X226275757Y-103022567D01*
X222078155Y-103022567D01*
X222070721Y-103017600D01*
X221918760Y-102954656D01*
X221910200Y-102952953D01*
X221910200Y-102383955D01*
X221915167Y-102376521D01*
X221978111Y-102224560D01*
X222010200Y-102063240D01*
X222010200Y-101898760D01*
X221978111Y-101737440D01*
X221915167Y-101585479D01*
X221823787Y-101448719D01*
X221707481Y-101332413D01*
X221570721Y-101241033D01*
X221418760Y-101178089D01*
X221257440Y-101146000D01*
X221212241Y-101146000D01*
X221197438Y-101127962D01*
X221169393Y-101104946D01*
X219179802Y-99115355D01*
X219240499Y-99109377D01*
X219454447Y-99044476D01*
X219651623Y-98939084D01*
X219824449Y-98797249D01*
X219870770Y-98740807D01*
X219885417Y-98745250D01*
X220014800Y-98757993D01*
X220047219Y-98754800D01*
X229227981Y-98754800D01*
X229260400Y-98757993D01*
X229292819Y-98754800D01*
X229389783Y-98745250D01*
X229405071Y-98740612D01*
X229451552Y-98797249D01*
X229624378Y-98939084D01*
X229821554Y-99044476D01*
X230035502Y-99109377D01*
X230258000Y-99131291D01*
X230480499Y-99109377D01*
X230694447Y-99044476D01*
X230891623Y-98939084D01*
X231064449Y-98797249D01*
X231076339Y-98782761D01*
X231159831Y-98809563D01*
X232027395Y-97942000D01*
X232013252Y-97927858D01*
X232192858Y-97748253D01*
X232207000Y-97762395D01*
X232221142Y-97748252D01*
X232400748Y-97927858D01*
%TA.AperFunction,Conductor*%
D17*
G36*
X232400748Y-97927858D02*
G01*
X232386605Y-97942000D01*
X232400748Y-97956143D01*
X232221142Y-98135748D01*
X232207000Y-98121605D01*
X231339437Y-98989169D01*
X231406809Y-99199045D01*
X231243602Y-99308096D01*
X231033096Y-99518602D01*
X230867703Y-99766131D01*
X230753778Y-100041170D01*
X230695700Y-100333150D01*
X230695700Y-100630850D01*
X230753778Y-100922830D01*
X230867703Y-101197869D01*
X231033096Y-101445398D01*
X231243602Y-101655904D01*
X231387420Y-101752000D01*
X231243602Y-101848096D01*
X231033096Y-102058602D01*
X230867703Y-102306131D01*
X230753778Y-102581170D01*
X230695700Y-102873150D01*
X230695700Y-103170850D01*
X230749289Y-103440264D01*
X230405808Y-103783746D01*
X230377763Y-103806762D01*
X230285914Y-103918680D01*
X230250253Y-103985398D01*
X230217664Y-104046367D01*
X230175635Y-104184915D01*
X230161444Y-104329000D01*
X230165001Y-104365115D01*
X230165000Y-114065000D01*
X229922096Y-114065000D01*
X229885999Y-114061445D01*
X229849902Y-114065000D01*
X229849895Y-114065000D01*
X229756132Y-114074235D01*
X229741914Y-114075635D01*
X229740764Y-114075984D01*
X229603367Y-114117663D01*
X229475680Y-114185913D01*
X229363762Y-114277762D01*
X229340741Y-114305813D01*
X229229209Y-114417345D01*
X229220440Y-114419089D01*
X229068479Y-114482033D01*
X228931719Y-114573413D01*
X228815413Y-114689719D01*
X228724033Y-114826479D01*
X228681386Y-114929439D01*
X223810500Y-110058554D01*
X223810500Y-108352955D01*
X223815467Y-108345521D01*
X223878411Y-108193560D01*
X223910500Y-108032240D01*
X223910500Y-107867760D01*
X223881851Y-107723735D01*
X223910499Y-107726557D01*
X223946604Y-107723001D01*
X224054584Y-107712366D01*
X224193132Y-107670338D01*
X224320819Y-107602088D01*
X224432737Y-107510239D01*
X224455758Y-107482189D01*
X226277501Y-105660446D01*
X226277500Y-106848545D01*
X226272533Y-106855979D01*
X226209589Y-107007940D01*
X226177500Y-107169260D01*
X226177500Y-107333740D01*
X226209589Y-107495060D01*
X226272533Y-107647021D01*
X226363913Y-107783781D01*
X226480219Y-107900087D01*
X226616979Y-107991467D01*
X226768940Y-108054411D01*
X226930260Y-108086500D01*
X227094740Y-108086500D01*
X227256060Y-108054411D01*
X227408021Y-107991467D01*
X227544781Y-107900087D01*
X227661087Y-107783781D01*
X227752467Y-107647021D01*
X227815411Y-107495060D01*
X227847500Y-107333740D01*
X227847500Y-107169260D01*
X227815411Y-107007940D01*
X227752467Y-106855979D01*
X227747500Y-106848545D01*
X227747500Y-104176105D01*
X227751056Y-104140000D01*
X227736865Y-103995915D01*
X227729129Y-103970413D01*
X227694837Y-103857367D01*
X227626587Y-103729680D01*
X227534738Y-103617762D01*
X227506687Y-103594741D01*
X227261869Y-103349923D01*
X227369921Y-103305167D01*
X227506681Y-103213787D01*
X227622987Y-103097481D01*
X227714367Y-102960721D01*
X227777311Y-102808760D01*
X227809400Y-102647440D01*
X227809400Y-102482960D01*
X227777311Y-102321640D01*
X227714367Y-102169679D01*
X227709400Y-102162245D01*
X227709400Y-100377355D01*
X227714367Y-100369921D01*
X227777311Y-100217960D01*
X227809400Y-100056640D01*
X227809400Y-99892160D01*
X227777311Y-99730840D01*
X227714367Y-99578879D01*
X227622987Y-99442119D01*
X227506681Y-99325813D01*
X227369921Y-99234433D01*
X227217960Y-99171489D01*
X227056640Y-99139400D01*
X226892160Y-99139400D01*
X226730840Y-99171489D01*
X226578879Y-99234433D01*
X226442119Y-99325813D01*
X226325813Y-99442119D01*
X226316601Y-99455906D01*
X225696852Y-99455906D01*
X225690911Y-99426040D01*
X225627967Y-99274079D01*
X225536587Y-99137319D01*
X225420281Y-99021013D01*
X225283521Y-98929633D01*
X225131560Y-98866689D01*
X224970240Y-98834600D01*
X224805760Y-98834600D01*
X224644440Y-98866689D01*
X224492479Y-98929633D01*
X224485045Y-98934600D01*
X223982506Y-98934600D01*
X223869989Y-98887994D01*
X223708669Y-98855905D01*
X223544189Y-98855905D01*
X223382869Y-98887994D01*
X223230908Y-98950938D01*
X223094148Y-99042318D01*
X222977842Y-99158624D01*
X222886462Y-99295384D01*
X222829931Y-99431863D01*
X222731481Y-99333413D01*
X222594721Y-99242033D01*
X222442760Y-99179089D01*
X222281440Y-99147000D01*
X222116960Y-99147000D01*
X221955640Y-99179089D01*
X221803679Y-99242033D01*
X221666919Y-99333413D01*
X221550613Y-99449719D01*
X221459233Y-99586479D01*
X221396289Y-99738440D01*
X221364200Y-99899760D01*
X221364200Y-100064240D01*
X221396289Y-100225560D01*
X221459233Y-100377521D01*
X221550613Y-100514281D01*
X221666919Y-100630587D01*
X221803679Y-100721967D01*
X221955640Y-100784911D01*
X221978971Y-100789552D01*
X221997786Y-100804993D01*
X222020250Y-100817000D01*
X222125473Y-100873243D01*
X222264021Y-100915271D01*
X222408106Y-100929462D01*
X222444211Y-100925906D01*
X226239400Y-100925906D01*
X226239401Y-102162244D01*
X226234433Y-102169679D01*
X226171489Y-102321640D01*
X226139400Y-102482960D01*
X226139400Y-102647440D01*
X226171489Y-102808760D01*
X226234433Y-102960721D01*
X226275757Y-103022567D01*
X222078155Y-103022567D01*
X222070721Y-103017600D01*
X221918760Y-102954656D01*
X221910200Y-102952953D01*
X221910200Y-102383955D01*
X221915167Y-102376521D01*
X221978111Y-102224560D01*
X222010200Y-102063240D01*
X222010200Y-101898760D01*
X221978111Y-101737440D01*
X221915167Y-101585479D01*
X221823787Y-101448719D01*
X221707481Y-101332413D01*
X221570721Y-101241033D01*
X221418760Y-101178089D01*
X221257440Y-101146000D01*
X221212241Y-101146000D01*
X221197438Y-101127962D01*
X221169393Y-101104946D01*
X219179802Y-99115355D01*
X219240499Y-99109377D01*
X219454447Y-99044476D01*
X219651623Y-98939084D01*
X219824449Y-98797249D01*
X219870770Y-98740807D01*
X219885417Y-98745250D01*
X220014800Y-98757993D01*
X220047219Y-98754800D01*
X229227981Y-98754800D01*
X229260400Y-98757993D01*
X229292819Y-98754800D01*
X229389783Y-98745250D01*
X229405071Y-98740612D01*
X229451552Y-98797249D01*
X229624378Y-98939084D01*
X229821554Y-99044476D01*
X230035502Y-99109377D01*
X230258000Y-99131291D01*
X230480499Y-99109377D01*
X230694447Y-99044476D01*
X230891623Y-98939084D01*
X231064449Y-98797249D01*
X231076339Y-98782761D01*
X231159831Y-98809563D01*
X232027395Y-97942000D01*
X232013252Y-97927858D01*
X232192858Y-97748253D01*
X232207000Y-97762395D01*
X232221142Y-97748252D01*
X232400748Y-97927858D01*
G37*
%TD.AperFunction*%
D16*
X217160748Y-100467858D02*
X217146605Y-100482000D01*
X218014169Y-101349563D01*
X218265929Y-101268746D01*
X218394457Y-101000221D01*
X218468129Y-100711781D01*
X218479824Y-100494271D01*
X219940201Y-101954648D01*
X219940200Y-111612273D01*
X219931640Y-111613976D01*
X219779679Y-111676920D01*
X219772245Y-111681887D01*
X219371810Y-111681887D01*
X219371810Y-109956358D01*
X219385387Y-109942781D01*
X219476767Y-109806021D01*
X219539711Y-109654060D01*
X219571800Y-109492740D01*
X219571800Y-109328260D01*
X219539711Y-109166940D01*
X219476767Y-109014979D01*
X219385387Y-108878219D01*
X219269081Y-108761913D01*
X219132321Y-108670533D01*
X218980360Y-108607589D01*
X218971800Y-108605886D01*
X218971800Y-106867894D01*
X218975355Y-106831799D01*
X218971800Y-106795704D01*
X218971800Y-106795695D01*
X218961165Y-106687715D01*
X218919137Y-106549167D01*
X218850887Y-106421480D01*
X218759038Y-106309562D01*
X218730993Y-106286546D01*
X218424711Y-105980264D01*
X218478300Y-105710850D01*
X218478300Y-105413150D01*
X218420222Y-105121170D01*
X218306297Y-104846131D01*
X218140904Y-104598602D01*
X217930398Y-104388096D01*
X217767191Y-104279045D01*
X217834563Y-104069169D01*
X216967000Y-103201605D01*
X216952858Y-103215748D01*
X216773252Y-103036142D01*
X216787395Y-103022000D01*
X217146605Y-103022000D01*
X218014169Y-103889563D01*
X218265929Y-103808746D01*
X218394457Y-103540221D01*
X218468129Y-103251781D01*
X218484113Y-102954509D01*
X218441796Y-102659833D01*
X218342802Y-102379073D01*
X218265929Y-102235254D01*
X218014169Y-102154437D01*
X217146605Y-103022000D01*
X216787395Y-103022000D01*
X216773252Y-103007858D01*
X216952858Y-102828252D01*
X216967000Y-102842395D01*
X217834563Y-101974831D01*
X217763032Y-101752000D01*
X217834563Y-101529169D01*
X216967000Y-100661605D01*
X216952858Y-100675748D01*
X216773252Y-100496142D01*
X216787395Y-100482000D01*
X216773252Y-100467858D01*
X216952858Y-100288252D01*
X216967000Y-100302395D01*
X216981142Y-100288252D01*
X217160748Y-100467858D01*
%TA.AperFunction,Conductor*%
D17*
G36*
X217160748Y-100467858D02*
G01*
X217146605Y-100482000D01*
X218014169Y-101349563D01*
X218265929Y-101268746D01*
X218394457Y-101000221D01*
X218468129Y-100711781D01*
X218479824Y-100494271D01*
X219940201Y-101954648D01*
X219940200Y-111612273D01*
X219931640Y-111613976D01*
X219779679Y-111676920D01*
X219772245Y-111681887D01*
X219371810Y-111681887D01*
X219371810Y-109956358D01*
X219385387Y-109942781D01*
X219476767Y-109806021D01*
X219539711Y-109654060D01*
X219571800Y-109492740D01*
X219571800Y-109328260D01*
X219539711Y-109166940D01*
X219476767Y-109014979D01*
X219385387Y-108878219D01*
X219269081Y-108761913D01*
X219132321Y-108670533D01*
X218980360Y-108607589D01*
X218971800Y-108605886D01*
X218971800Y-106867894D01*
X218975355Y-106831799D01*
X218971800Y-106795704D01*
X218971800Y-106795695D01*
X218961165Y-106687715D01*
X218919137Y-106549167D01*
X218850887Y-106421480D01*
X218759038Y-106309562D01*
X218730993Y-106286546D01*
X218424711Y-105980264D01*
X218478300Y-105710850D01*
X218478300Y-105413150D01*
X218420222Y-105121170D01*
X218306297Y-104846131D01*
X218140904Y-104598602D01*
X217930398Y-104388096D01*
X217767191Y-104279045D01*
X217834563Y-104069169D01*
X216967000Y-103201605D01*
X216952858Y-103215748D01*
X216773252Y-103036142D01*
X216787395Y-103022000D01*
X217146605Y-103022000D01*
X218014169Y-103889563D01*
X218265929Y-103808746D01*
X218394457Y-103540221D01*
X218468129Y-103251781D01*
X218484113Y-102954509D01*
X218441796Y-102659833D01*
X218342802Y-102379073D01*
X218265929Y-102235254D01*
X218014169Y-102154437D01*
X217146605Y-103022000D01*
X216787395Y-103022000D01*
X216773252Y-103007858D01*
X216952858Y-102828252D01*
X216967000Y-102842395D01*
X217834563Y-101974831D01*
X217763032Y-101752000D01*
X217834563Y-101529169D01*
X216967000Y-100661605D01*
X216952858Y-100675748D01*
X216773252Y-100496142D01*
X216787395Y-100482000D01*
X216773252Y-100467858D01*
X216952858Y-100288252D01*
X216967000Y-100302395D01*
X216981142Y-100288252D01*
X217160748Y-100467858D01*
G37*
%TD.AperFunction*%
%TD*%
M02*
